<?xml version="1.0" encoding="utf-8"?>
<!-- Generator: Adobe Illustrator 19.2.1, SVG Export Plug-In . SVG Version: 6.00 Build 0)  -->
<svg version="1.1" id="Capa_1" xmlns="http://www.w3.org/2000/svg" xmlns:xlink="http://www.w3.org/1999/xlink" x="0px" y="0px"
	 viewBox="0 0 137 306" style="enable-background:new 0 0 137 306;" xml:space="preserve">
<style type="text/css">
	.st0{fill:#AB1E18;}
	.st1{fill:#733231;}
	.st2{fill:#CE312B;}
	.st3{fill:#670F10;}
	.st4{fill:url(#XMLID_2_);}
	.st5{fill:#2D2D2F;}
	.st6{fill:#921519;}
	.st7{fill:#B74544;}
	.st8{fill:#FFFFFF;}
	.st9{fill:#CD3930;}
	.st10{fill:#941519;}
</style>
<path id="XMLID_3075_" class="st0" d="M86.5,241.1c-6.9-4.8-14.2-4.8-21.7,0c-13.8,8.4-20,29.6-18.5,63.4c17.2-1.4,33-1.5,47.4-0.4
	c2.5,0.2,4.9,0.4,7.2,0.7c0.7,0.1,1.5,0.2,2.2,0.2C104.9,275.6,99.4,254.3,86.5,241.1z"/>
<path id="XMLID_3047_" class="st1" d="M130.3,46.1v2.6l4-2.7L130.3,46.1z"/>
<path id="XMLID_3083_" class="st2" d="M127.1,46.2L21.9,47.8l2,136.1l1.6,111.8c-0.8,6.4,1.8,9.8,7.7,10.1c1.9,0.1,4.3-0.1,6.9-0.7
	c2-0.2,4.1-0.4,6.1-0.5c-1.5-33.8,4.7-55,18.5-63.4c7.6-4.8,14.8-4.8,21.7,0c12.9,13.3,18.5,34.6,16.6,63.9
	c4.2,0.7,7.6,0.8,10.3,0.5c5.3-0.6,7.9-3.1,7.9-7.4l3.9-109.6l5-139.6v-2.6L127.1,46.2z"/>
<path id="XMLID_3044_" class="st3" d="M6.6,48.5l0,1.6l6.2,230.8l2.1,3.9h1.3l4.5,10.9l3.7,6.9c1.8,2.7,4.7,3.7,8.7,3.1
	c-5.9-0.3-8.5-3.6-7.7-10.1l-1.6-111.8l-2-136.1L18,47.9l-9.6,0.5L6.6,48.5z"/>
<linearGradient id="XMLID_2_" gradientUnits="userSpaceOnUse" x1="2.5582" y1="269.6314" x2="17.9718" y2="269.6314" gradientTransform="matrix(1 0 0 -1 0 308.11)">
	<stop  offset="0" style="stop-color:#070607"/>
	<stop  offset="1" style="stop-color:#070606"/>
</linearGradient>
<path id="XMLID_3042_" class="st4" d="M16.7,28.7c-1.8,0.3-3.6,0.7-5.3,1.1l-8.8,1.8l0.1,3.7l0.3,13l5.4,0.1l9.6-0.5V28.5
	C17.5,28.6,17.1,28.6,16.7,28.7z"/>
<path id="XMLID_3041_" class="st3" d="M15.8,17.1c-1.4-5.9-5.4-8.8-12-8.6c-2.8,5-3.9,12.9-3.4,23.6l2.3-0.5l8.8-1.8
	c1.7-0.5,3.5-0.8,5.3-1.1L15.8,17.1z"/>
<path id="XMLID_3045_" class="st5" d="M21.5,28.2c-1.2,0.1-2.4,0.2-3.5,0.3v19.4l3.9-0.2l105.2-1.6l3.2,0l4-0.1v-8.8
	c0-0.1,0-0.2,0-0.3V26.8L21.5,28.2z"/>
<path id="XMLID_3039_" class="st6" d="M114.9,0.9c-0.7,0-1.1,0.1-1.2,0.1c-0.1,0-0.2,0.1-0.3,0.1c-0.5,0.1-0.8,0.4-0.9,0.7
	c3.7-0.2,6.6,1.6,8.4,5.2l4.6-0.1C124,2.7,120.5,0.7,114.9,0.9z"/>
<path id="XMLID_3032_" class="st7" d="M28.5,3.7l-2.4-1.9h-6.9c3.3,2.1,5.7,4.2,7.2,6.4L120.9,7c-1.9-3.7-4.7-5.4-8.4-5.2h-3.3
	l3.1,1.9H28.5z"/>
<path id="XMLID_3031_" class="st8" d="M26.2,1.8l2.4,1.9h83.7l-3.1-1.9h-5h-3.3H26.2z"/>
<path id="XMLID_3030_" class="st9" d="M26.6,8.2h-1.7l-3.6-3.4c-1.9-1.8-4-2.8-6.3-3c-0.4-0.1-0.9-0.1-1.3,0c-0.4,0-0.9,0-1.3,0.1
	C8.6,2.6,5.7,4.8,3.7,8.5c6.6-0.1,10.6,2.8,12,8.6l0.9,11.6c0.4-0.1,0.8-0.1,1.3-0.2c1.2-0.2,2.3-0.3,3.5-0.3l112.7-1.4l2.9,0V15.2
	c-1.4-8.3-7.3-13.3-17.6-15c-0.6-0.1-1.1-0.1-1.6-0.1c-1.6-0.1-2.8,0.2-3.4,0.8c0,0,0.1,0,0.1,0h0.4c5.5-0.2,9.1,1.8,10.6,6.1
	L120.9,7L26.6,8.2z"/>
<path id="XMLID_3029_" class="st10" d="M24.9,8.2h1.7c-1.5-2.1-3.9-4.3-7.2-6.4H15c2.2,0.2,4.3,1.2,6.3,3L24.9,8.2z"/>
<g id="XMLID_137_">
	<path id="XMLID_138_" class="st8" d="M92.2,143.9c-0.5-0.3-1-0.5-1.5-0.7c0.1-0.6,0.1-1.2,0.1-1.8c0-6.2-3.9-11.8-9.7-13.9
		c-0.5-0.2-1,0.1-1.2,0.5c-0.2,0.5,0,1,0.4,1.2c3.2,1.6,5.1,4.8,5.1,8.4c0,1.2-0.2,2.3-0.6,3.4c-2.4-2-5.5-3.2-8.8-3.2
		c-3.3,0-6.4,1.2-8.7,3.1c-0.4-1.1-0.6-2.2-0.6-3.3c0-3.5,2-6.8,5.1-8.4c0.4-0.2,0.6-0.7,0.4-1.2c-0.2-0.5-0.7-0.7-1.2-0.5
		c-5.8,2.1-9.7,7.7-9.7,13.9c0,0.6,0,1.2,0.1,1.8c-0.5,0.2-1,0.5-1.5,0.8c-5.3,3.1-8.2,9.3-7.1,15.4c0.1,0.5,0.5,0.8,0.9,0.8
		c0.5,0,0.9-0.4,0.9-0.9c0-0.1,0-0.1,0-0.1c-0.1-3.5,1.6-6.8,4.7-8.5c1-0.6,2-0.9,3.1-1.1c-0.1,0.7-0.2,1.5-0.2,2.2
		c0,6,3.8,11,9.1,13c-0.7,0.9-1.6,1.6-2.6,2.2c-1.4,0.8-3.1,1.3-4.7,1.3c-1.8,0-3.6-0.5-5.1-1.5c-0.4-0.3-1-0.2-1.2,0.2
		c-0.3,0.4-0.2,0.9,0.1,1.3c2.7,2.2,6,3.5,9.5,3.5c2.6,0,5.1-0.7,7.4-2c0.5-0.3,0.9-0.6,1.4-0.9c0.4,0.3,0.9,0.6,1.4,0.9
		c2.2,1.3,4.8,2,7.4,2c3.5,0,6.9-1.2,9.5-3.5c0.4-0.3,0.4-0.9,0.1-1.3c-0.3-0.4-0.8-0.5-1.2-0.2c-1.5,1-3.3,1.5-5.1,1.5
		c-1.6,0-3.3-0.4-4.7-1.3c-1-0.6-1.9-1.3-2.6-2.3c5.3-1.9,9-7,9-12.9c0-0.8-0.1-1.5-0.2-2.2c1.1,0.2,2.2,0.6,3.2,1.1
		c3.1,1.8,4.9,5.1,4.7,8.6c0,0.5,0.3,0.9,0.8,1c0.5,0.1,0.9-0.3,1-0.8C100.4,153.1,97.6,147,92.2,143.9z M82.2,144.7
		c-1.3,1.1-2.8,1.8-4.4,2.1c-1.1,0.2-2.2,0.2-3.3,0c-1.7-0.3-3.2-1-4.5-2.1c1.6-1.5,3.8-2.3,6.1-2.3
		C78.4,142.3,80.6,143.2,82.2,144.7z M66.9,151.5c0-0.6,0.1-1.3,0.2-1.9c1.6,0.5,3,1.5,4.1,2.8c0.4,0.5,0.7,0.9,1,1.4
		c0.3,0.5,0.5,0.9,0.7,1.5c0.6,1.6,0.7,3.3,0.4,4.9C69.6,159,66.9,155.6,66.9,151.5z M78.9,160.2c-0.3-1.6-0.2-3.3,0.4-4.9
		c0.2-0.5,0.4-1,0.7-1.5c0.3-0.5,0.6-1,1-1.4c1.1-1.3,2.5-2.2,4-2.7c0.1,0.6,0.2,1.2,0.2,1.8C85.2,155.5,82.5,159,78.9,160.2z"/>
</g>
</svg>
