<?xml version="1.0" encoding="utf-8"?>
<!-- Generator: Adobe Illustrator 19.2.1, SVG Export Plug-In . SVG Version: 6.00 Build 0)  -->
<svg version="1.1" id="Capa_1" xmlns="http://www.w3.org/2000/svg" xmlns:xlink="http://www.w3.org/1999/xlink" x="0px" y="0px"
	 viewBox="0 0 137 306" style="enable-background:new 0 0 137 306;" xml:space="preserve">
<style type="text/css">
	.st0{fill:#AB1E18;}
	.st1{fill:#733231;}
	.st2{fill:#CE312B;}
	.st3{fill:#670F10;}
	.st4{fill:url(#XMLID_2_);}
	.st5{fill:#2D2D2F;}
	.st6{fill:#921519;}
	.st7{fill:#B74544;}
	.st8{fill:#FFFFFF;}
	.st9{fill:#CD3930;}
	.st10{fill:#941519;}
</style>
<path id="XMLID_3075_" class="st0" d="M86.5,241.1c-6.9-4.8-14.2-4.8-21.7,0c-13.8,8.4-20,29.6-18.5,63.4c17.2-1.4,33-1.5,47.4-0.4
	c2.5,0.2,4.9,0.4,7.2,0.7c0.7,0.1,1.5,0.2,2.2,0.2C104.9,275.6,99.4,254.3,86.5,241.1z"/>
<path id="XMLID_3047_" class="st1" d="M130.3,46.1v2.6l4-2.7L130.3,46.1z"/>
<path id="XMLID_3083_" class="st2" d="M127.1,46.2L21.9,47.8l2,136.1l1.6,111.8c-0.8,6.4,1.8,9.8,7.7,10.1c1.9,0.1,4.3-0.1,6.9-0.7
	c2-0.2,4.1-0.4,6.1-0.5c-1.5-33.8,4.7-55,18.5-63.4c7.6-4.8,14.8-4.8,21.7,0c12.9,13.3,18.5,34.6,16.6,63.9
	c4.2,0.7,7.6,0.8,10.3,0.5c5.3-0.6,7.9-3.1,7.9-7.4l3.9-109.6l5-139.6v-2.6L127.1,46.2z"/>
<path id="XMLID_3044_" class="st3" d="M6.6,48.5v1.6l6.2,230.8l2.1,3.9h1.3l4.5,10.9l3.7,6.9c1.8,2.7,4.7,3.7,8.7,3.1
	c-5.9-0.3-8.5-3.6-7.7-10.1l-1.6-111.8l-2-136.1L18,47.9l-9.6,0.5L6.6,48.5z"/>
<linearGradient id="XMLID_2_" gradientUnits="userSpaceOnUse" x1="2.5582" y1="-239.66" x2="17.9582" y2="-239.66" gradientTransform="matrix(1 0 0 1 0 278.11)">
	<stop  offset="0" style="stop-color:#070607"/>
	<stop  offset="1" style="stop-color:#070606"/>
</linearGradient>
<path id="XMLID_3042_" class="st4" d="M16.7,28.7c-1.8,0.3-3.6,0.7-5.3,1.1l-8.8,1.8l0.1,3.7l0.3,13l5.4,0.1l9.6-0.5V28.5
	C17.5,28.6,17.1,28.6,16.7,28.7z"/>
<path id="XMLID_3041_" class="st3" d="M15.8,17.1c-1.4-5.9-5.4-8.8-12-8.6c-2.8,5-3.9,12.9-3.4,23.6l2.3-0.5l8.8-1.8
	c1.7-0.5,3.5-0.8,5.3-1.1L15.8,17.1z"/>
<path id="XMLID_3045_" class="st5" d="M21.5,28.2c-1.2,0.1-2.4,0.2-3.5,0.3v19.4l3.9-0.2l105.2-1.6h3.2l4-0.1v-8.8
	c0-0.1,0-0.2,0-0.3V26.8L21.5,28.2z"/>
<path id="XMLID_3039_" class="st6" d="M114.9,0.9c-0.7,0-1.1,0.1-1.2,0.1s-0.2,0.1-0.3,0.1c-0.5,0.1-0.8,0.4-0.9,0.7
	c3.7-0.2,6.6,1.6,8.4,5.2l4.6-0.1C124,2.7,120.5,0.7,114.9,0.9z"/>
<path id="XMLID_3032_" class="st7" d="M28.5,3.7l-2.4-1.9h-6.9c3.3,2.1,5.7,4.2,7.2,6.4L120.9,7c-1.9-3.7-4.7-5.4-8.4-5.2h-3.3
	l3.1,1.9C112.3,3.7,28.5,3.7,28.5,3.7z"/>
<path id="XMLID_3031_" class="st8" d="M26.2,1.8l2.4,1.9h83.7l-3.1-1.9h-5h-3.3C100.9,1.8,26.2,1.8,26.2,1.8z"/>
<path id="XMLID_3030_" class="st9" d="M26.6,8.2h-1.7l-3.6-3.4c-1.9-1.8-4-2.8-6.3-3c-0.4-0.1-0.9-0.1-1.3,0c-0.4,0-0.9,0-1.3,0.1
	C8.6,2.6,5.7,4.8,3.7,8.5c6.6-0.1,10.6,2.8,12,8.6l0.9,11.6c0.4-0.1,0.8-0.1,1.3-0.2c1.2-0.2,2.3-0.3,3.5-0.3l112.7-1.4h2.9V15.2
	c-1.4-8.3-7.3-13.3-17.6-15c-0.6-0.1-1.1-0.1-1.6-0.1c-1.6-0.1-2.8,0.2-3.4,0.8h0.1h0.4c5.5-0.2,9.1,1.8,10.6,6.1l-4.6,0L26.6,8.2z"
	/>
<path id="XMLID_3029_" class="st10" d="M24.9,8.2h1.7c-1.5-2.1-3.9-4.3-7.2-6.4H15c2.2,0.2,4.3,1.2,6.3,3L24.9,8.2z"/>
<g id="XMLID_137_">
	<path id="XMLID_138_" class="st8" d="M92.2,143.9c-0.5-0.3-1-0.5-1.5-0.7c0.1-0.6,0.1-1.2,0.1-1.8c0-6.2-3.9-11.8-9.7-13.9
		c-0.5-0.2-1,0.1-1.2,0.5c-0.2,0.5,0,1,0.4,1.2c3.2,1.6,5.1,4.8,5.1,8.4c0,1.2-0.2,2.3-0.6,3.4c-2.4-2-5.5-3.2-8.8-3.2
		s-6.4,1.2-8.7,3.1c-0.4-1.1-0.6-2.2-0.6-3.3c0-3.5,2-6.8,5.1-8.4c0.4-0.2,0.6-0.7,0.4-1.2s-0.7-0.7-1.2-0.5
		c-5.8,2.1-9.7,7.7-9.7,13.9c0,0.6,0,1.2,0.1,1.8c-0.5,0.2-1,0.5-1.5,0.8c-5.3,3.1-8.2,9.3-7.1,15.4c0.1,0.5,0.5,0.8,0.9,0.8
		c0.5,0,0.9-0.4,0.9-0.9c0-0.1,0-0.1,0-0.1c-0.1-3.5,1.6-6.8,4.7-8.5c1-0.6,2-0.9,3.1-1.1c-0.1,0.7-0.2,1.5-0.2,2.2
		c0,6,3.8,11,9.1,13c-0.7,0.9-1.6,1.6-2.6,2.2c-1.4,0.8-3.1,1.3-4.7,1.3c-1.8,0-3.6-0.5-5.1-1.5c-0.4-0.3-1-0.2-1.2,0.2
		c-0.3,0.4-0.2,0.9,0.1,1.3c2.7,2.2,6,3.5,9.5,3.5c2.6,0,5.1-0.7,7.4-2c0.5-0.3,0.9-0.6,1.4-0.9c0.4,0.3,0.9,0.6,1.4,0.9
		c2.2,1.3,4.8,2,7.4,2c3.5,0,6.9-1.2,9.5-3.5c0.4-0.3,0.4-0.9,0.1-1.3c-0.3-0.4-0.8-0.5-1.2-0.2c-1.5,1-3.3,1.5-5.1,1.5
		c-1.6,0-3.3-0.4-4.7-1.3c-1-0.6-1.9-1.3-2.6-2.3c5.3-1.9,9-7,9-12.9c0-0.8-0.1-1.5-0.2-2.2c1.1,0.2,2.2,0.6,3.2,1.1
		c3.1,1.8,4.9,5.1,4.7,8.6c0,0.5,0.3,0.9,0.8,1s0.9-0.3,1-0.8C100.4,153.1,97.6,147,92.2,143.9z M82.2,144.7
		c-1.3,1.1-2.8,1.8-4.4,2.1c-1.1,0.2-2.2,0.2-3.3,0c-1.7-0.3-3.2-1-4.5-2.1c1.6-1.5,3.8-2.3,6.1-2.3
		C78.4,142.3,80.6,143.2,82.2,144.7z M66.9,151.5c0-0.6,0.1-1.3,0.2-1.9c1.6,0.5,3,1.5,4.1,2.8c0.4,0.5,0.7,0.9,1,1.4
		s0.5,0.9,0.7,1.5c0.6,1.6,0.7,3.3,0.4,4.9C69.6,159,66.9,155.6,66.9,151.5z M78.9,160.2c-0.3-1.6-0.2-3.3,0.4-4.9
		c0.2-0.5,0.4-1,0.7-1.5c0.3-0.5,0.6-1,1-1.4c1.1-1.3,2.5-2.2,4-2.7c0.1,0.6,0.2,1.2,0.2,1.8C85.2,155.5,82.5,159,78.9,160.2z"/>
</g>
<g>
	<path class="st8" d="M47.7,92c0.4,0.2,0.6,0.5,0.9,0.9s0.3,0.8,0.3,1.3c0,0.5-0.1,0.9-0.3,1.3s-0.5,0.7-0.9,0.9
		c-0.4,0.2-0.8,0.3-1.2,0.3h-2.3v2.7c0,0.2-0.1,0.3-0.2,0.4c-0.1,0.1-0.2,0.2-0.4,0.2c-0.2,0-0.3-0.1-0.4-0.2
		c-0.1-0.1-0.2-0.2-0.2-0.4v-7.2c0-0.2,0.1-0.3,0.2-0.4s0.2-0.2,0.4-0.2h2.8C46.9,91.6,47.3,91.8,47.7,92z M47.1,95.5
		c0.2-0.1,0.3-0.3,0.4-0.6c0.1-0.2,0.2-0.5,0.2-0.7c0-0.4-0.1-0.8-0.4-1c-0.2-0.3-0.5-0.4-0.8-0.4h-2.3v3h2.3
		C46.7,95.7,46.9,95.7,47.1,95.5z"/>
	<path class="st8" d="M55.5,99.1c0.1,0.1,0.2,0.2,0.2,0.4c0,0.2-0.1,0.3-0.2,0.4c-0.1,0.1-0.2,0.1-0.4,0.1h-4.2
		c-0.2,0-0.3-0.1-0.4-0.2c-0.1-0.1-0.2-0.2-0.2-0.4v-7.2c0-0.2,0.1-0.3,0.2-0.4s0.2-0.2,0.4-0.2h4.2c0.2,0,0.3,0.1,0.4,0.2
		c0.1,0.1,0.2,0.2,0.2,0.4c0,0.2-0.1,0.3-0.2,0.4c-0.1,0.1-0.2,0.1-0.4,0.1h-3.6v2.4h3c0.2,0,0.3,0.1,0.4,0.2s0.2,0.2,0.2,0.4
		c0,0.2-0.1,0.3-0.2,0.4c-0.1,0.1-0.2,0.1-0.4,0.1h-3v2.7h3.6C55.2,98.9,55.4,99,55.5,99.1z"/>
	<path class="st8" d="M62.2,99.1c0.1,0.1,0.2,0.2,0.2,0.4c0,0.2-0.1,0.3-0.2,0.4S62,100,61.8,100h-4.1c-0.2,0-0.3-0.1-0.4-0.2
		c-0.1-0.1-0.2-0.2-0.2-0.4v-7.2c0-0.2,0.1-0.3,0.2-0.4s0.3-0.2,0.4-0.2c0.2,0,0.3,0.1,0.4,0.2s0.2,0.2,0.2,0.4v6.7h3.4
		C62,98.9,62.1,99,62.2,99.1z"/>
	<path class="st8" d="M64.8,99.9c-0.1,0.1-0.3,0.2-0.4,0.2c-0.2,0-0.3-0.1-0.4-0.2c-0.1-0.1-0.2-0.3-0.2-0.4v-7.2
		c0-0.2,0.1-0.3,0.2-0.4s0.3-0.2,0.4-0.2c0.2,0,0.3,0.1,0.4,0.2s0.2,0.2,0.2,0.4v7.2C64.9,99.6,64.9,99.8,64.8,99.9z"/>
	<path class="st8" d="M73.5,95.8c0.1,0.1,0.2,0.2,0.2,0.4v2.7c0,0.2-0.1,0.4-0.3,0.5c-0.4,0.2-0.8,0.4-1.2,0.6
		c-0.4,0.1-0.9,0.2-1.4,0.2c-0.8,0-1.5-0.2-2.2-0.6c-0.7-0.4-1.2-0.9-1.6-1.6s-0.6-1.4-0.6-2.2s0.2-1.5,0.6-2.2s0.9-1.2,1.6-1.6
		c0.7-0.4,1.4-0.6,2.2-0.6c0.4,0,0.8,0,1.2,0.1c0.4,0.1,0.7,0.2,1,0.4c0.1,0.1,0.2,0.1,0.2,0.2c0,0.1,0.1,0.2,0.1,0.3
		c0,0.2-0.1,0.3-0.2,0.4c-0.1,0.1-0.2,0.2-0.4,0.2c-0.1,0-0.2,0-0.3-0.1c-0.5-0.2-1-0.4-1.6-0.4c-0.6,0-1.1,0.1-1.6,0.4
		c-0.5,0.3-0.9,0.7-1.1,1.2c-0.3,0.5-0.4,1-0.4,1.6c0,0.6,0.1,1.1,0.4,1.6c0.3,0.5,0.7,0.9,1.1,1.2c0.5,0.3,1,0.4,1.6,0.4
		c0.3,0,0.6,0,0.9-0.1c0.3-0.1,0.6-0.1,0.8-0.3v-1.9H71c-0.2,0-0.3-0.1-0.4-0.2c-0.1-0.1-0.2-0.2-0.2-0.4c0-0.2,0.1-0.3,0.2-0.4
		c0.1-0.1,0.2-0.2,0.4-0.2h2.1C73.3,95.6,73.4,95.7,73.5,95.8z"/>
	<path class="st8" d="M81.9,99.3c0,0.1,0.1,0.2,0.1,0.3c0,0.2-0.1,0.3-0.2,0.4c-0.1,0.1-0.2,0.1-0.4,0.1c-0.2,0-0.3,0-0.4-0.1
		c-0.2-0.1-0.4-0.4-0.6-0.7s-0.2-0.8-0.2-1.3c0-0.4-0.1-0.7-0.4-0.9c-0.2-0.2-0.6-0.3-0.9-0.3h-2.4v2.7c0,0.2,0,0.3-0.1,0.4
		s-0.2,0.2-0.4,0.2c-0.2,0-0.3-0.1-0.5-0.2c-0.1-0.1-0.2-0.2-0.2-0.4v-7.2c0-0.2,0.1-0.3,0.2-0.4s0.2-0.2,0.4-0.2h3.4
		c0.4,0,0.8,0.1,1.2,0.3c0.4,0.2,0.6,0.5,0.9,0.9s0.3,0.8,0.3,1.3c0,0.4-0.1,0.9-0.4,1.3c-0.2,0.4-0.5,0.7-0.9,0.9
		c0.3,0.2,0.5,0.4,0.7,0.6c0.2,0.3,0.3,0.6,0.3,0.9c0,0.5,0.1,0.8,0.1,0.9s0.1,0.3,0.3,0.4C81.8,99.1,81.8,99.2,81.9,99.3z
		 M79.8,95.5c0.2-0.1,0.3-0.3,0.4-0.6c0.1-0.2,0.2-0.5,0.2-0.8c0-0.4-0.1-0.7-0.4-1c-0.2-0.3-0.5-0.4-0.9-0.4h-2.7v3h2.7
		C79.4,95.8,79.6,95.7,79.8,95.5z"/>
	<path class="st8" d="M90.4,98c-0.3,0.7-0.8,1.2-1.4,1.6c-0.6,0.4-1.3,0.6-2.1,0.6c-0.8,0-1.5-0.2-2.1-0.6c-0.6-0.4-1.1-0.9-1.4-1.6
		s-0.5-1.4-0.5-2.2c0-0.8,0.2-1.5,0.5-2.2c0.3-0.7,0.8-1.2,1.4-1.6c0.6-0.4,1.3-0.6,2.1-0.6c0.8,0,1.5,0.2,2.1,0.6
		c0.6,0.4,1.1,0.9,1.4,1.6c0.3,0.7,0.5,1.4,0.5,2.2C90.9,96.7,90.8,97.4,90.4,98z M89.4,94.2c-0.2-0.5-0.6-0.9-1-1.1
		c-0.4-0.3-0.9-0.4-1.5-0.4s-1,0.1-1.5,0.4c-0.4,0.3-0.8,0.7-1,1.1c-0.2,0.5-0.4,1-0.4,1.6c0,0.6,0.1,1.1,0.4,1.6
		c0.2,0.5,0.6,0.9,1,1.1c0.4,0.3,0.9,0.4,1.5,0.4s1-0.1,1.5-0.4c0.4-0.3,0.8-0.7,1-1.1c0.2-0.5,0.4-1,0.4-1.6
		C89.7,95.3,89.6,94.7,89.4,94.2z"/>
	<path class="st8" d="M93.5,99.9c-0.4-0.2-0.9-0.4-1.3-0.8c-0.2-0.1-0.3-0.3-0.3-0.5c0-0.1,0.1-0.3,0.2-0.4c0.1-0.1,0.2-0.2,0.4-0.2
		c0.1,0,0.3,0,0.3,0.1c0.3,0.3,0.6,0.5,1,0.7c0.3,0.1,0.7,0.2,1.2,0.2c0.5,0,0.9-0.1,1.3-0.3s0.5-0.5,0.5-0.9c0-0.4-0.2-0.7-0.5-1
		s-0.9-0.4-1.6-0.6c-0.8-0.2-1.5-0.4-1.9-0.8c-0.4-0.4-0.7-0.9-0.7-1.6c0-0.5,0.1-0.9,0.4-1.2c0.2-0.4,0.6-0.6,1-0.8
		c0.4-0.2,0.9-0.3,1.5-0.3c0.5,0,1,0.1,1.4,0.2c0.4,0.2,0.8,0.4,1.1,0.6c0.2,0.2,0.3,0.3,0.3,0.5c0,0.1-0.1,0.3-0.2,0.4
		c-0.1,0.1-0.2,0.2-0.4,0.2c-0.1,0-0.2,0-0.3-0.1c-0.2-0.2-0.5-0.4-0.9-0.5s-0.7-0.2-1.1-0.2c-0.5,0-1,0.1-1.3,0.3
		c-0.3,0.2-0.5,0.5-0.5,0.9c0,0.4,0.2,0.7,0.5,0.9c0.3,0.2,0.8,0.4,1.4,0.5c0.6,0.1,1.1,0.3,1.5,0.5c0.4,0.2,0.7,0.4,0.9,0.8
		c0.2,0.3,0.3,0.8,0.3,1.3c0,0.5-0.1,0.9-0.4,1.2s-0.6,0.6-1.1,0.8c-0.4,0.2-0.9,0.3-1.5,0.3C94.4,100.2,93.9,100.1,93.5,99.9z"/>
	<path class="st8" d="M106.6,98c-0.3,0.7-0.8,1.2-1.4,1.6c-0.6,0.4-1.3,0.6-2.1,0.6c-0.8,0-1.5-0.2-2.1-0.6
		c-0.6-0.4-1.1-0.9-1.4-1.6S99,96.7,99,95.8c0-0.8,0.2-1.5,0.5-2.2c0.3-0.7,0.8-1.2,1.4-1.6c0.6-0.4,1.3-0.6,2.1-0.6
		c0.8,0,1.5,0.2,2.1,0.6c0.6,0.4,1.1,0.9,1.4,1.6c0.3,0.7,0.5,1.4,0.5,2.2C107.1,96.7,106.9,97.4,106.6,98z M105.5,94.2
		c-0.2-0.5-0.6-0.9-1-1.1c-0.4-0.3-0.9-0.4-1.5-0.4s-1,0.1-1.5,0.4c-0.4,0.3-0.8,0.7-1,1.1c-0.2,0.5-0.4,1-0.4,1.6
		c0,0.6,0.1,1.1,0.4,1.6c0.2,0.5,0.6,0.9,1,1.1c0.4,0.3,0.9,0.4,1.5,0.4s1-0.1,1.5-0.4c0.4-0.3,0.8-0.7,1-1.1c0.2-0.5,0.4-1,0.4-1.6
		C105.8,95.3,105.7,94.7,105.5,94.2z"/>
</g>
</svg>
