<?xml version="1.0" encoding="utf-8"?>
<!-- Generator: Adobe Illustrator 19.2.1, SVG Export Plug-In . SVG Version: 6.00 Build 0)  -->
<svg version="1.1" id="Capa_1" xmlns="http://www.w3.org/2000/svg" xmlns:xlink="http://www.w3.org/1999/xlink" x="0px" y="0px"
	 viewBox="0 0 137 306" style="enable-background:new 0 0 137 306;" xml:space="preserve">
<style type="text/css">
	.st0{fill:#C0BFBF;}
	.st1{fill:#AEAFB2;}
	.st2{fill:#777A7A;}
	.st3{fill:url(#XMLID_2_);}
	.st4{fill:#E2E1E2;}
	.st5{fill:#353535;}
	.st6{fill:#271816;}
	.st7{fill:#8B8080;}
	.st8{fill:#84828B;}
	.st9{fill:#FFFFFF;}
	.st10{fill:#CBCBCD;}
	.st11{fill:#EDECEC;}
	.st12{fill:#009A34;}
</style>
<g>
	<path id="XMLID_3071_" class="st0" d="M86.3,256.3c-5.6-12.7-12.6-19.5-20.9-20.5c-10.6,0.8-18.2,8-22.8,21.6
		c-3.2,12.3-5,27.4-5.6,45.3h1.1c0.1,0,0.2,0,0.2,0c1.2-0.2,2.5-0.3,3.7-0.4c14.5-1.4,31.7-1.2,51.5,0.5
		C93.5,281.6,91,266.1,86.3,256.3z"/>
	<path id="XMLID_3069_" class="st1" d="M116.9,59.6l-0.1,7.9l-2.3,224c0,4.3-0.7,7.8-2.2,10.5c0.6-0.4,1.1-0.9,1.4-1.5
		c1.1-1.8,2-3.5,2.8-5.3c1.6-3.5,2.9-7,3.9-10.5h0.9c0.8-2.4,1.4-4.7,2-7.1c2.8-22,4.1-44.1,4-66.1V53.3
		C123.8,52.1,120.4,54.2,116.9,59.6z"/>
	<path id="XMLID_3068_" class="st2" d="M119.5,46.7H117l-0.1,12.9c3.5-5.4,6.9-7.5,10.4-6.3v-5.2L119.5,46.7z"/>
	
		<linearGradient id="XMLID_2_" gradientUnits="userSpaceOnUse" x1="119.47" y1="268.1757" x2="133.0972" y2="268.1757" gradientTransform="matrix(1 0 0 -1 0 308.11)">
		<stop  offset="0" style="stop-color:#070607"/>
		<stop  offset="1" style="stop-color:#070606"/>
	</linearGradient>
	<path id="XMLID_3067_" class="st3" d="M133.1,34.1V33l-10-2.3h-3.7v16l7.9,1.4l5.8,1v-0.8V34.1z"/>
	<path id="XMLID_308_" class="st4" d="M15.6,46.8L15.6,46.8H8.3l12.2,248.7c-0.4,5,1.4,7.3,5.3,7.1l0,0h11.3
		c0.5-17.9,2.4-33,5.6-45.3c4.6-13.6,12.2-20.8,22.8-21.6c8.3,1,15.3,7.8,20.9,20.5c4.7,9.8,7.1,25.3,7.3,46.5h14
		c2.1,0.1,3.7-0.2,4.8-0.8c1.5-2.7,2.2-6.2,2.2-10.5l2.3-224l0.1-7.9l0.1-12.9L15.6,46.8z"/>
	<path id="XMLID_3063_" class="st5" d="M6,30.8v16.1h2.3h7.3L117,46.7h2.5v-16H6z"/>
	<path id="XMLID_3062_" class="st6" d="M6,30.8H3.8v16.1H6V30.8z"/>
	<path id="XMLID_3061_" class="st7" d="M16,11h1.6c1.2-3.3,3.7-5.4,7.4-6.1C21.3,4.8,18.3,6.8,16,11z"/>
	<path id="XMLID_3055_" class="st8" d="M132.3,10.2c-1.6-0.9-3.3-0.2-5.4,2.1c-1.3,1.7-2.2,3.7-2.9,5.9c-1.1,3.6-1.4,7.8-0.9,12.6
		l10,2.3v-19C132.9,12.6,132.7,11.4,132.3,10.2z"/>
	<path id="XMLID_90_" class="st9" d="M109.7,4.7L33.1,4.9h-2.8h-1.7c-2.8,1-4.9,2.3-6.4,3.9h85.4c1.1-1.9,2.4-3.3,4-4H109.7z"/>
	<path id="XMLID_3051_" class="st10" d="M111.5,4.7c-1.6,0.7-2.9,2-4,4H22.1c1.5-1.6,3.6-2.9,6.4-3.9H25c-3.7,0.7-6.2,2.8-7.4,6.1
		H62h50.4l3.8-4.6c0.5-0.7,1-1.2,1.6-1.7L111.5,4.7z"/>
	<path id="XMLID_302_" class="st11" d="M123.1,2.8c-2.1,0.1-3.8,0.7-5.3,1.9c-0.6,0.5-1.1,1-1.6,1.7l-3.8,4.6H62H17.6H16
		c2.3-4.1,5.3-6.2,9-6.1c-2-1.7-4.5-2.3-7.4-1.7c-8.2,2.1-12.8,7.1-13.8,15l0,0v12.7H6h113.4h3.7c-0.5-4.8-0.2-9,0.9-12.6
		c0.7-2.2,1.6-4.1,2.9-5.9c2-2.2,3.8-2.9,5.4-2.1C130.8,5.7,127.8,3.2,123.1,2.8z"/>
	<g id="XMLID_2923_">
		<g>
			<path id="XMLID_51_" class="st12" d="M38,140.1l3,2.4l-2.9,5.5c-1.4,2.5,1,5,2.6,5.8c1.5,0.8,3.9,0.9,6.2,0.9l4-6.6l3,1.6
				l-5.3-9.8L38,140.1z M38.5,153.5l6.5,12c1.3,1.7,3.8,2.1,6.3,2h6.9v-11.4l-13-0.1C43.1,156.2,40.5,155.7,38.5,153.5z M79.5,131.3
				l-3.5,1.5l-3.4-5.2c-1.5-2.5-4.9-1.5-6.4-0.6c-1.5,0.9-2.7,3-3.8,4.9l3.8,6.7l-2.9,1.9l11.1,0.1L79.5,131.3z M67.5,125.2
				l-13.7-0.1c-2.1,0.3-3.6,2.3-4.8,4.6l-3.3,6l10,5.5l6.4-11.4C62.9,128,64.6,125.9,67.5,125.2z M68.1,171.7l0.4-3.8l6.2-0.5
				c2.9-0.1,3.7-3.5,3.6-5.3c-0.1-1.8-1.3-3.8-2.5-5.7l-7.7,0.1l-0.2-3.4l-5.5,9.6L68.1,171.7z M79.3,164.2l6.8-11.9
				c0.7-2-0.2-4.3-1.7-6.4l-3.6-5.8l-9.7,6l6.8,11.1C79,158.8,80.1,161.3,79.3,164.2z"/>
		</g>
	</g>
</g>
</svg>
