<?xml version="1.0" encoding="utf-8"?>
<!-- Generator: Adobe Illustrator 19.2.1, SVG Export Plug-In . SVG Version: 6.00 Build 0)  -->
<svg version="1.1" id="Capa_1" xmlns="http://www.w3.org/2000/svg" xmlns:xlink="http://www.w3.org/1999/xlink" x="0px" y="0px"
	 viewBox="0 0 137 306" style="enable-background:new 0 0 137 306;" xml:space="preserve">
<style type="text/css">
	.st0{fill:#100E10;}
	.st1{fill:#070607;}
	.st2{fill:#1A1E1A;}
	.st3{fill:#01040F;}
	.st4{fill:#0B0C15;}
	.st5{fill:#2D2D2F;}
	.st6{fill:#FFFFFF;}
	.st7{fill:#232220;}
	.st8{fill:#2E2F2F;}
	.st9{fill:#040B26;}
</style>
<path id="XMLID_304_" class="st0" d="M75.1,239.9c-4.7-2-9.3-2.1-13.7-0.2c-17,7-25.1,28.5-24.3,64.5c0.9-0.1,1.8-0.1,2.7-0.1
	c0.2,0,0.4,0,0.6,0c18.7-1.1,37.3-0.9,55.6,0.6C96.7,271.6,89.8,250,75.1,239.9z"/>
<path id="XMLID_3022_" class="st1" d="M12.5,33.3v2.8v13.6c0.7-0.3,1.4-0.5,2.3-0.7L15,33.2C14.1,33.3,13.3,33.3,12.5,33.3z"/>
<path id="XMLID_3020_" class="st2" d="M11.5,12.4c-2.4,0.5-3.8,2.2-4,5.2v13.6c0.6-0.9,1.9-1.3,4-1.3h6.1V19.1
	C16.9,14.9,14.9,12.7,11.5,12.4z"/>
<path id="XMLID_3017_" class="st3" d="M20.1,4.9C20,4.7,20,4.5,19.8,4.3c-0.2-0.4-0.4-0.6-0.7-0.7c-0.2-0.1-0.5-0.1-0.8,0v6.2h1.8
	L20.1,4.9 M118.9,8.4l0.5-4.9c-0.4,0.9-1.1,1.5-2.3,1.7c0,0.2,0,0.4,0,0.6l-0.7,4.4C118,10.4,118.8,9.8,118.9,8.4z"/>
<path id="XMLID_3015_" class="st2" d="M125.4,53.1L125.4,53.1c-0.1-2.2-1.4-3.6-4.2-4.2L20.1,49.8c-1.1,0-2,0.2-2.8,0.4
	c-1.2,0.4-2,1.1-2.4,2.1l5.4,234.4l0,0l0.2,9.9v2.3c0.5,4.3,3.8,6.2,10,5.8c2.2-0.2,4.4-0.4,6.6-0.5c-0.8-36.1,7.3-57.6,24.3-64.5
	c4.5-1.9,9-1.8,13.7,0.2C89.8,250,96.7,271.6,96,304.6c0.4,0,0.9,0.1,1.4,0.1h10.2c5.2,0.2,7.8-2,7.9-6.4c0.1-0.9,0.1-1.7,0.2-2.6
	l0.1-2c0.1-2.9,0.3-5.7,0.4-8.5h0.2c4.7-72.8,7.7-149.3,9.1-229.8c0-0.6,0-1.2,0-1.9C125.4,53.4,125.4,53.2,125.4,53.1"/>
<path id="XMLID_3014_" class="st4" d="M125.8,50c0.3-1,0.8-1.6,1.5-2L19.8,48.8c-2-0.1-3.7,0-5.1,0.3v1.1v2.1c0.4-1,1.2-1.7,2.4-2.1
	c0.7-0.2,1.7-0.4,2.8-0.4L121.2,49c2.7,0.6,4.1,1.9,4.2,4.1C125.4,51.8,125.5,50.8,125.8,50z"/>
<path id="XMLID_303_" class="st5" d="M126.9,31.1l-23.3,0.1c8.3,0.2-2.8,0.6-33.2,1.2c-30.4-0.6-41.5-1-33.2-1.2l-23.3-0.1h-3.1v4.4
	v10.8c-0.1,0.9,0.5,1.5,1.7,1.7h1h1.2v1.1c1.4-0.2,3.1-0.3,5.1-0.3l50.6-0.4l50.6,0.4c2-0.1,3.7,0,5.1,0.3V48h1.2h-1
	c1.2-0.2,1.8-0.7,1.7-1.7V35.5V31L126.9,31.1z"/>
<path id="XMLID_3012_" class="st6" d="M106.9,5V3.6H25.2V5H106.9z"/>
<path id="XMLID_3011_" class="st7" d="M115.5,3.6h-8.6V5H25.2V3.6h-2.3c-1.7-0.1-2.7,0.2-3,0.7C20,4.5,20,4.7,20.1,4.9v4.9l96.3,0.5
	l0.7-4.4c0-0.2,0-0.4,0-0.6C117,4.2,116.4,3.7,115.5,3.6z"/>
<path id="XMLID_3010_" class="st8" d="M119.4,3.5l-0.5,4.9c-0.1,1.4-0.9,2-2.5,1.9L20.1,9.8h-1.8V3.6V3C12.1,2.4,8.5,6.4,7.5,15v2.7
	c0.3-3,1.6-4.7,4-5.2c3.4,0.2,5.4,2.5,6,6.6V30l86.1,0.2l24.3-0.1c1.6-0.2,2.4-1.1,2.4-2.9v-15C129.4,4.9,125.1,2,119.4,3.5z"/>
<path id="XMLID_307_" class="st9" d="M128.8,28.9c-0.3,0-0.7,0.1-1,0.4l-74.7,0.6L17.4,30h-5.9c-2.1,0-3.4,0.4-3.9,1.3l4.8,1.1
	c0.8,0,1.6,0,2.4,0c3.8,0,7.4,0.1,11,0.1H128h0.3l1.3-3C129.4,29.1,129.1,28.9,128.8,28.9z"/>
<g>
	<path class="st6" d="M67.8,91.8c0.1,0.1,0.1,0.2,0.1,0.4v7.3c0,0.2-0.1,0.3-0.2,0.4c-0.1,0.1-0.2,0.2-0.4,0.2c-0.1,0-0.2,0-0.3,0
		c-0.1,0-0.2-0.1-0.2-0.1l-4.7-6.1v5.8c0,0.2,0,0.3-0.2,0.4c-0.1,0.1-0.2,0.1-0.4,0.1c-0.2,0-0.3,0-0.4-0.1
		c-0.1-0.1-0.1-0.2-0.1-0.4v-7.3c0-0.2,0.1-0.3,0.2-0.4c0.1-0.1,0.2-0.2,0.4-0.2c0.1,0,0.2,0,0.3,0.1c0.1,0,0.2,0.1,0.2,0.2l4.7,6.2
		v-5.8c0-0.2,0-0.3,0.1-0.4c0.1-0.1,0.2-0.1,0.4-0.1C67.6,91.6,67.7,91.7,67.8,91.8z"/>
	<path class="st6" d="M77,98c-0.3,0.7-0.8,1.2-1.4,1.6c-0.6,0.4-1.3,0.6-2.1,0.6c-0.8,0-1.5-0.2-2.1-0.6c-0.6-0.4-1.1-0.9-1.4-1.6
		s-0.5-1.4-0.5-2.2c0-0.8,0.2-1.5,0.5-2.2c0.3-0.7,0.8-1.2,1.4-1.6c0.6-0.4,1.3-0.6,2.1-0.6c0.8,0,1.5,0.2,2.1,0.6
		c0.6,0.4,1.1,0.9,1.4,1.6c0.3,0.7,0.5,1.4,0.5,2.2C77.6,96.7,77.4,97.4,77,98z M76,94.2c-0.2-0.5-0.6-0.9-1-1.1
		c-0.4-0.3-0.9-0.4-1.5-0.4s-1,0.1-1.5,0.4c-0.4,0.3-0.8,0.7-1,1.1c-0.2,0.5-0.4,1-0.4,1.6c0,0.6,0.1,1.1,0.4,1.6
		c0.2,0.5,0.6,0.9,1,1.1c0.4,0.3,0.9,0.4,1.5,0.4s1-0.1,1.5-0.4c0.4-0.3,0.8-0.7,1-1.1c0.2-0.5,0.4-1,0.4-1.6
		C76.3,95.3,76.2,94.7,76,94.2z"/>
	<path class="st6" d="M30.5,113.9c0,0.2-0.1,0.3-0.2,0.4c-0.1,0.1-0.2,0.2-0.4,0.2c-0.1,0-0.2,0-0.3-0.1c-0.1-0.1-0.2-0.2-0.2-0.3
		l-0.7-1.8H25l-0.7,1.8c0,0.1-0.1,0.2-0.2,0.3c-0.1,0.1-0.2,0.1-0.3,0.1c-0.2,0-0.3,0-0.4-0.1s-0.1-0.2-0.1-0.4c0,0,0-0.1,0-0.2
		l3.1-7.4c0.1-0.1,0.1-0.2,0.2-0.3c0.1-0.1,0.2-0.1,0.3-0.1c0.1,0,0.2,0,0.3,0.1c0.1,0.1,0.2,0.2,0.2,0.3l3,7.3
		C30.5,113.8,30.5,113.9,30.5,113.9z M25.5,111.2h2.8l-1.4-3.4L25.5,111.2z"/>
	<path class="st6" d="M36.3,106.4c0.4,0.2,0.6,0.5,0.9,0.9s0.3,0.8,0.3,1.3s-0.1,0.9-0.3,1.3c-0.2,0.4-0.5,0.7-0.9,0.9
		c-0.4,0.2-0.8,0.3-1.2,0.3h-2.3v2.7c0,0.2-0.1,0.3-0.2,0.4c-0.1,0.1-0.2,0.2-0.4,0.2c-0.2,0-0.3-0.1-0.4-0.2
		c-0.1-0.1-0.2-0.2-0.2-0.4v-7.2c0-0.2,0.1-0.3,0.2-0.4c0.1-0.1,0.2-0.2,0.4-0.2h2.8C35.5,106,35.9,106.2,36.3,106.4z M35.7,109.9
		c0.2-0.1,0.3-0.3,0.4-0.6c0.1-0.2,0.2-0.5,0.2-0.7c0-0.4-0.1-0.8-0.4-1c-0.2-0.3-0.5-0.4-0.8-0.4h-2.3v3h2.3
		C35.3,110.1,35.5,110.1,35.7,109.9z"/>
	<path class="st6" d="M45.5,113.7c0,0.1,0.1,0.2,0.1,0.3c0,0.2-0.1,0.3-0.2,0.4c-0.1,0.1-0.2,0.1-0.4,0.1c-0.2,0-0.3,0-0.4-0.1
		c-0.2-0.1-0.4-0.4-0.6-0.7s-0.2-0.8-0.2-1.3c0-0.4-0.1-0.7-0.4-0.9c-0.2-0.2-0.6-0.3-0.9-0.3h-2.4v2.7c0,0.2,0,0.3-0.1,0.4
		c-0.1,0.1-0.2,0.2-0.4,0.2c-0.2,0-0.3-0.1-0.5-0.2c-0.1-0.1-0.2-0.2-0.2-0.4v-7.2c0-0.2,0.1-0.3,0.2-0.4c0.1-0.1,0.2-0.2,0.4-0.2
		h3.4c0.4,0,0.8,0.1,1.2,0.3c0.4,0.2,0.6,0.5,0.9,0.9s0.3,0.8,0.3,1.3c0,0.4-0.1,0.9-0.4,1.3c-0.2,0.4-0.5,0.7-0.9,0.9
		c0.3,0.2,0.5,0.4,0.7,0.6c0.2,0.3,0.3,0.6,0.3,0.9c0,0.5,0.1,0.8,0.1,0.9c0,0.2,0.1,0.3,0.3,0.4C45.4,113.5,45.5,113.6,45.5,113.7z
		 M43.5,109.9c0.2-0.1,0.3-0.3,0.4-0.6s0.2-0.5,0.2-0.8c0-0.4-0.1-0.7-0.4-1c-0.2-0.3-0.5-0.4-0.9-0.4h-2.7v3h2.7
		C43.1,110.2,43.3,110.1,43.5,109.9z"/>
	<path class="st6" d="M54.1,112.4c-0.3,0.7-0.8,1.2-1.4,1.6s-1.3,0.6-2.1,0.6c-0.8,0-1.5-0.2-2.1-0.6c-0.6-0.4-1.1-0.9-1.4-1.6
		s-0.5-1.4-0.5-2.2c0-0.8,0.2-1.5,0.5-2.2c0.3-0.7,0.8-1.2,1.4-1.6c0.6-0.4,1.3-0.6,2.1-0.6c0.8,0,1.5,0.2,2.1,0.6s1.1,0.9,1.4,1.6
		c0.3,0.7,0.5,1.4,0.5,2.2C54.6,111.1,54.5,111.8,54.1,112.4z M53,108.6c-0.2-0.5-0.6-0.9-1-1.1c-0.4-0.3-0.9-0.4-1.5-0.4
		s-1,0.1-1.5,0.4c-0.4,0.3-0.8,0.6-1,1.1c-0.2,0.5-0.4,1-0.4,1.6c0,0.6,0.1,1.1,0.4,1.6c0.2,0.5,0.6,0.9,1,1.1
		c0.4,0.3,0.9,0.4,1.5,0.4s1-0.1,1.5-0.4c0.4-0.3,0.8-0.7,1-1.1c0.2-0.5,0.4-1,0.4-1.6C53.4,109.7,53.3,109.1,53,108.6z"/>
	<path class="st6" d="M62.5,106.2c0.1,0.1,0.2,0.2,0.2,0.4c0,0.1,0,0.2-0.1,0.3l-3.1,7.2c-0.1,0.1-0.1,0.2-0.2,0.3
		c-0.1,0.1-0.2,0.1-0.3,0.1c-0.1,0-0.2,0-0.3-0.1c-0.1-0.1-0.2-0.1-0.2-0.3l-3.1-7.2c0-0.1,0-0.1,0-0.3c0-0.2,0.1-0.3,0.2-0.4
		c0.1-0.1,0.3-0.2,0.4-0.2c0.2,0,0.4,0.1,0.5,0.4l2.6,6.2l2.5-6.2c0.1-0.1,0.1-0.2,0.2-0.3c0.1-0.1,0.2-0.1,0.3-0.1
		C62.3,106,62.4,106.1,62.5,106.2z"/>
	<path class="st6" d="M69.2,113.5c0.1,0.1,0.2,0.2,0.2,0.4c0,0.2-0.1,0.3-0.2,0.4c-0.1,0.1-0.2,0.2-0.4,0.2h-4.2
		c-0.2,0-0.3-0.1-0.4-0.2s-0.2-0.2-0.2-0.4v-7.2c0-0.2,0.1-0.3,0.2-0.4c0.1-0.1,0.2-0.2,0.4-0.2h4.2c0.2,0,0.3,0.1,0.4,0.2
		c0.1,0.1,0.2,0.2,0.2,0.4c0,0.2-0.1,0.3-0.2,0.4c-0.1,0.1-0.2,0.2-0.4,0.2h-3.6v2.4h3c0.2,0,0.3,0.1,0.4,0.2
		c0.1,0.1,0.2,0.2,0.2,0.4c0,0.2-0.1,0.3-0.2,0.4c-0.1,0.1-0.2,0.1-0.4,0.1h-3v2.7h3.6C69,113.3,69.1,113.4,69.2,113.5z"/>
	<path class="st6" d="M77.2,107c0,0.1,0,0.3-0.1,0.4c-0.1,0.1-0.2,0.2-0.4,0.2c-0.1,0-0.2,0-0.3-0.1c-0.5-0.3-1-0.4-1.6-0.4
		c-0.6,0-1.1,0.1-1.6,0.4c-0.5,0.3-0.8,0.6-1.1,1.1s-0.4,1-0.4,1.6c0,0.7,0.1,1.2,0.4,1.7c0.3,0.5,0.6,0.8,1.1,1.1s1,0.4,1.6,0.4
		c0.6,0,1.1-0.1,1.6-0.4c0.1,0,0.2-0.1,0.3-0.1c0.2,0,0.3,0.1,0.4,0.2c0.1,0.1,0.1,0.2,0.1,0.4c0,0.1,0,0.2-0.1,0.3
		s-0.1,0.2-0.2,0.2c-0.3,0.2-0.7,0.3-1,0.4c-0.4,0.1-0.8,0.2-1.1,0.2c-0.8,0-1.5-0.2-2.1-0.5c-0.7-0.3-1.2-0.8-1.6-1.5
		c-0.4-0.7-0.6-1.4-0.6-2.3c0-0.8,0.2-1.5,0.6-2.2c0.4-0.7,0.9-1.2,1.5-1.5c0.7-0.4,1.4-0.6,2.2-0.6c0.8,0,1.5,0.2,2.2,0.6
		C77.1,106.6,77.2,106.8,77.2,107z"/>
	<path class="st6" d="M85,106.2c0.1,0.1,0.2,0.2,0.2,0.4v7.2c0,0.2-0.1,0.3-0.2,0.4s-0.3,0.2-0.4,0.2c-0.2,0-0.3-0.1-0.4-0.2
		c-0.1-0.1-0.2-0.3-0.2-0.4v-3.1h-4.3v3.1c0,0.2-0.1,0.3-0.2,0.4s-0.3,0.2-0.4,0.2c-0.2,0-0.3-0.1-0.4-0.2c-0.1-0.1-0.2-0.3-0.2-0.4
		v-7.2c0-0.2,0.1-0.3,0.2-0.4c0.1-0.1,0.3-0.2,0.4-0.2c0.2,0,0.3,0.1,0.4,0.2c0.1,0.1,0.2,0.2,0.2,0.4v3H84v-3
		c0-0.2,0.1-0.3,0.2-0.4c0.1-0.1,0.3-0.2,0.4-0.2C84.8,106,84.9,106.1,85,106.2z"/>
	<path class="st6" d="M93.7,113.9c0,0.2-0.1,0.3-0.2,0.4c-0.1,0.1-0.2,0.2-0.4,0.2c-0.1,0-0.2,0-0.3-0.1c-0.1-0.1-0.2-0.2-0.2-0.3
		l-0.7-1.8h-3.7l-0.7,1.8c0,0.1-0.1,0.2-0.2,0.3c-0.1,0.1-0.2,0.1-0.3,0.1c-0.2,0-0.3,0-0.4-0.1s-0.1-0.2-0.1-0.4c0,0,0-0.1,0-0.2
		l3.1-7.4c0.1-0.1,0.1-0.2,0.2-0.3c0.1-0.1,0.2-0.1,0.3-0.1c0.1,0,0.2,0,0.3,0.1c0.1,0.1,0.2,0.2,0.2,0.3l3,7.3
		C93.7,113.8,93.7,113.9,93.7,113.9z M88.6,111.2h2.8l-1.4-3.4L88.6,111.2z"/>
	<path class="st6" d="M100.8,110.6c0.3,0.3,0.4,0.8,0.4,1.4c0,0.9-0.3,1.5-0.8,1.9c-0.5,0.4-1.1,0.6-1.9,0.6h-3.1
		c-0.2,0-0.3-0.1-0.4-0.2s-0.2-0.2-0.2-0.4v-7.2c0-0.2,0.1-0.3,0.2-0.4c0.1-0.1,0.2-0.2,0.4-0.2h3.1c0.7,0,1.3,0.2,1.7,0.5
		c0.4,0.4,0.6,0.9,0.6,1.6c0,0.4-0.1,0.7-0.3,1c-0.2,0.3-0.5,0.5-0.8,0.7C100.2,110,100.5,110.3,100.8,110.6z M99.3,107.5
		c-0.2-0.2-0.5-0.3-0.9-0.3h-2.3v2.3h2.3c0.3,0,0.6-0.1,0.8-0.3s0.3-0.5,0.3-0.9S99.5,107.7,99.3,107.5z M99.6,113
		c0.3-0.2,0.4-0.6,0.4-1c0-0.9-0.5-1.3-1.5-1.3h-2.4v2.7h2.4C99,113.3,99.3,113.2,99.6,113z"/>
	<path class="st6" d="M107.8,113.5c0.1,0.1,0.2,0.2,0.2,0.4c0,0.2-0.1,0.3-0.2,0.4c-0.1,0.1-0.2,0.2-0.4,0.2h-4.1
		c-0.2,0-0.3-0.1-0.4-0.2c-0.1-0.1-0.2-0.2-0.2-0.4v-7.2c0-0.2,0.1-0.3,0.2-0.4c0.1-0.1,0.3-0.2,0.4-0.2c0.2,0,0.3,0.1,0.4,0.2
		c0.1,0.1,0.2,0.2,0.2,0.4v6.7h3.4C107.5,113.3,107.7,113.4,107.8,113.5z"/>
	<path class="st6" d="M114.5,113.5c0.1,0.1,0.2,0.2,0.2,0.4c0,0.2-0.1,0.3-0.2,0.4c-0.1,0.1-0.2,0.2-0.4,0.2h-4.2
		c-0.2,0-0.3-0.1-0.4-0.2s-0.2-0.2-0.2-0.4v-7.2c0-0.2,0.1-0.3,0.2-0.4c0.1-0.1,0.2-0.2,0.4-0.2h4.2c0.2,0,0.3,0.1,0.4,0.2
		c0.1,0.1,0.2,0.2,0.2,0.4c0,0.2-0.1,0.3-0.2,0.4c-0.1,0.1-0.2,0.2-0.4,0.2h-3.6v2.4h3c0.2,0,0.3,0.1,0.4,0.2
		c0.1,0.1,0.2,0.2,0.2,0.4c0,0.2-0.1,0.3-0.2,0.4c-0.1,0.1-0.2,0.1-0.4,0.1h-3v2.7h3.6C114.3,113.3,114.4,113.4,114.5,113.5z"/>
</g>
</svg>
