<?xml version="1.0" encoding="utf-8"?>
<!-- Generator: Adobe Illustrator 19.2.1, SVG Export Plug-In . SVG Version: 6.00 Build 0)  -->
<svg version="1.1" id="Capa_1" xmlns="http://www.w3.org/2000/svg" xmlns:xlink="http://www.w3.org/1999/xlink" x="0px" y="0px"
	 viewBox="0 0 137 306" style="enable-background:new 0 0 137 306;" xml:space="preserve">
<style type="text/css">
	.st0{fill:#100E10;}
	.st1{fill:#070607;}
	.st2{fill:#1A1E1A;}
	.st3{fill:#01040F;}
	.st4{fill:#0B0C15;}
	.st5{fill:#2D2D2F;}
	.st6{fill:#FFFFFF;}
	.st7{fill:#232220;}
	.st8{fill:#2E2F2F;}
	.st9{fill:#040B26;}
</style>
<path id="XMLID_304_" class="st0" d="M75.1,239.9c-4.7-2-9.3-2.1-13.7-0.2c-17,7-25.1,28.5-24.3,64.5c0.9-0.1,1.8-0.1,2.7-0.1
	c0.2,0,0.4,0,0.6,0c18.7-1.1,37.3-0.9,55.6,0.6C96.7,271.6,89.8,250,75.1,239.9z"/>
<path id="XMLID_3022_" class="st1" d="M12.5,33.3v2.8v13.6c0.7-0.3,1.4-0.5,2.3-0.7l0.2-15.8C14.1,33.3,13.3,33.3,12.5,33.3z"/>
<path id="XMLID_3020_" class="st2" d="M11.5,12.4c-2.4,0.5-3.8,2.2-4,5.2v13.6c0.6-0.9,1.9-1.3,4-1.3l6.1,0V19.1
	C16.9,14.9,14.9,12.7,11.5,12.4z"/>
<path id="XMLID_3017_" class="st3" d="M20.1,4.9C20,4.7,20,4.5,19.8,4.3c-0.2-0.4-0.4-0.6-0.7-0.7c-0.2-0.1-0.5-0.1-0.8,0v6.2h1.8
	V4.9 M118.9,8.4l0.5-4.9c-0.4,0.9-1.1,1.5-2.3,1.7c0,0.2,0,0.4,0,0.6l-0.7,4.4C118,10.4,118.8,9.8,118.9,8.4z"/>
<path id="XMLID_3015_" class="st2" d="M125.4,53.1L125.4,53.1c-0.1-2.2-1.4-3.6-4.2-4.2L20.1,49.8c-1.1,0-2,0.2-2.8,0.4
	c-1.2,0.4-2,1.1-2.4,2.1l5.4,234.4h0l0.2,9.9l0,2.3c0.5,4.3,3.8,6.2,10,5.8c2.2-0.2,4.4-0.4,6.6-0.5c-0.8-36.1,7.3-57.6,24.3-64.5
	c4.5-1.9,9-1.8,13.7,0.2C89.8,250,96.7,271.6,96,304.6c0.4,0,0.9,0.1,1.4,0.1h10.2c5.2,0.2,7.8-2,7.9-6.4c0.1-0.9,0.1-1.7,0.2-2.6
	l0.1-2c0.1-2.9,0.3-5.7,0.4-8.5h0.2c4.7-72.8,7.7-149.3,9.1-229.8c0-0.6,0-1.2,0-1.9C125.4,53.4,125.4,53.2,125.4,53.1"/>
<path id="XMLID_3014_" class="st4" d="M125.8,50c0.3-1,0.8-1.6,1.5-2L19.8,48.8c-2-0.1-3.7,0-5.1,0.3l0,1.1l0,2.1
	c0.4-1,1.2-1.7,2.4-2.1c0.7-0.2,1.7-0.4,2.8-0.4L121.2,49c2.7,0.6,4.1,1.9,4.2,4.1C125.4,51.8,125.5,50.8,125.8,50z"/>
<path id="XMLID_303_" class="st5" d="M126.9,31.1l-23.3,0.1c8.3,0.2-2.8,0.6-33.2,1.2c-30.4-0.6-41.5-1-33.2-1.2l-23.3-0.1l-3.1,0
	v4.4v10.8c-0.1,0.9,0.5,1.5,1.7,1.7h1l1.2,0l0,1.1c1.4-0.2,3.1-0.3,5.1-0.3l50.6-0.4l50.6,0.4c2-0.1,3.7,0,5.1,0.3l0-1.1l1.2,0h-1
	c1.2-0.2,1.8-0.7,1.7-1.7V35.5V31L126.9,31.1z"/>
<path id="XMLID_3012_" class="st6" d="M106.9,5V3.6H25.2V5H106.9z"/>
<path id="XMLID_3011_" class="st7" d="M115.5,3.6h-8.6V5H25.2V3.6h-2.3c-1.7-0.1-2.7,0.2-3,0.7C20,4.5,20,4.7,20.1,4.9v4.9l96.3,0.5
	l0.7-4.4c0-0.2,0-0.4,0-0.6C117,4.2,116.4,3.7,115.5,3.6z"/>
<path id="XMLID_3010_" class="st8" d="M119.4,3.5l-0.5,4.9c-0.1,1.4-0.9,2-2.5,1.9L20.1,9.8h-1.8V3.6V3c-6.2-0.6-9.8,3.4-10.8,12
	v2.7c0.3-3,1.6-4.7,4-5.2c3.4,0.2,5.4,2.5,6,6.6V30l86.1,0.2l24.3-0.1c1.6-0.2,2.4-1.1,2.4-2.9v-15C129.4,4.9,125.1,2,119.4,3.5z"/>
<path id="XMLID_307_" class="st9" d="M128.8,28.9c-0.3,0-0.7,0.1-1,0.4l-74.7,0.6L17.4,30l-5.9,0c-2.1,0-3.4,0.4-3.9,1.3l4.8,1.1
	c0.8,0,1.6,0,2.4,0c3.8,0,7.4,0.1,11,0.1H128h0.3l1.3-3C129.4,29.1,129.1,28.9,128.8,28.9z"/>
</svg>
