<?xml version="1.0" encoding="utf-8"?>
<!-- Generator: Adobe Illustrator 19.2.1, SVG Export Plug-In . SVG Version: 6.00 Build 0)  -->
<svg version="1.1" id="Capa_1" xmlns="http://www.w3.org/2000/svg" xmlns:xlink="http://www.w3.org/1999/xlink" x="0px" y="0px"
	 viewBox="0 0 137 306" style="enable-background:new 0 0 137 306;" xml:space="preserve">
<style type="text/css">
	.st0{fill:#C0BFBF;}
	.st1{fill:#AEAFB2;}
	.st2{fill:#777A7A;}
	.st3{fill:url(#XMLID_2_);}
	.st4{fill:#E2E1E2;}
	.st5{fill:#353535;}
	.st6{fill:#271816;}
	.st7{fill:#8B8080;}
	.st8{fill:#84828B;}
	.st9{fill:#FFFFFF;}
	.st10{fill:#CBCBCD;}
	.st11{fill:#EDECEC;}
	.st12{fill:#009A34;}
</style>
<g>
	<path id="XMLID_3071_" class="st0" d="M86.3,256.3c-5.6-12.7-12.6-19.5-20.9-20.5c-10.6,0.8-18.2,8-22.8,21.6
		c-3.2,12.3-5,27.4-5.6,45.3h1.1c0.1,0,0.2,0,0.2,0c1.2-0.2,2.5-0.3,3.7-0.4c14.5-1.4,31.7-1.2,51.5,0.5
		C93.5,281.6,91,266.1,86.3,256.3z"/>
	<path id="XMLID_3069_" class="st1" d="M116.9,59.6l-0.1,7.9l-2.3,224c0,4.3-0.7,7.8-2.2,10.5c0.6-0.4,1.1-0.9,1.4-1.5
		c1.1-1.8,2-3.5,2.8-5.3c1.6-3.5,2.9-7,3.9-10.5h0.9c0.8-2.4,1.4-4.7,2-7.1c2.8-22,4.1-44.1,4-66.1V53.3
		C123.8,52.1,120.4,54.2,116.9,59.6z"/>
	<path id="XMLID_3068_" class="st2" d="M119.5,46.7H117l-0.1,12.9c3.5-5.4,6.9-7.5,10.4-6.3v-5.2L119.5,46.7z"/>
	
		<linearGradient id="XMLID_2_" gradientUnits="userSpaceOnUse" x1="119.47" y1="-238.21" x2="133.0972" y2="-238.21" gradientTransform="matrix(1 0 0 1 0 278.11)">
		<stop  offset="0" style="stop-color:#070607"/>
		<stop  offset="1" style="stop-color:#070606"/>
	</linearGradient>
	<path id="XMLID_3067_" class="st3" d="M133.1,34.1V33l-10-2.3h-3.7v16l7.9,1.4l5.8,1v-0.8V34.1z"/>
	<path id="XMLID_308_" class="st4" d="M15.6,46.8L15.6,46.8H8.3l12.2,248.7c-0.4,5,1.4,7.3,5.3,7.1l0,0h11.3
		c0.5-17.9,2.4-33,5.6-45.3c4.6-13.6,12.2-20.8,22.8-21.6c8.3,1,15.3,7.8,20.9,20.5c4.7,9.8,7.1,25.3,7.3,46.5h14
		c2.1,0.1,3.7-0.2,4.8-0.8c1.5-2.7,2.2-6.2,2.2-10.5l2.3-224l0.1-7.9l0.1-12.9L15.6,46.8z"/>
	<path id="XMLID_3063_" class="st5" d="M6,30.8v16.1h2.3h7.3L117,46.7h2.5v-16L6,30.8L6,30.8z"/>
	<path id="XMLID_3062_" class="st6" d="M6,30.8H3.8v16.1H6V30.8z"/>
	<path id="XMLID_3061_" class="st7" d="M16,11h1.6c1.2-3.3,3.7-5.4,7.4-6.1C21.3,4.8,18.3,6.8,16,11z"/>
	<path id="XMLID_3055_" class="st8" d="M132.3,10.2c-1.6-0.9-3.3-0.2-5.4,2.1c-1.3,1.7-2.2,3.7-2.9,5.9c-1.1,3.6-1.4,7.8-0.9,12.6
		l10,2.3v-19C132.9,12.6,132.7,11.4,132.3,10.2z"/>
	<path id="XMLID_90_" class="st9" d="M109.7,4.7L33.1,4.9h-2.8h-1.7c-2.8,1-4.9,2.3-6.4,3.9h85.4c1.1-1.9,2.4-3.3,4-4h-1.9V4.7z"/>
	<path id="XMLID_3051_" class="st10" d="M111.5,4.7c-1.6,0.7-2.9,2-4,4H22.1c1.5-1.6,3.6-2.9,6.4-3.9H25c-3.7,0.7-6.2,2.8-7.4,6.1
		H62h50.4l3.8-4.6c0.5-0.7,1-1.2,1.6-1.7L111.5,4.7z"/>
	<path id="XMLID_302_" class="st11" d="M123.1,2.8c-2.1,0.1-3.8,0.7-5.3,1.9c-0.6,0.5-1.1,1-1.6,1.7l-3.8,4.6H62H17.6H16
		c2.3-4.1,5.3-6.2,9-6.1c-2-1.7-4.5-2.3-7.4-1.7c-8.2,2.1-12.8,7.1-13.8,15l0,0v12.7H6h113.4h3.7c-0.5-4.8-0.2-9,0.9-12.6
		c0.7-2.2,1.6-4.1,2.9-5.9c2-2.2,3.8-2.9,5.4-2.1C130.8,5.7,127.8,3.2,123.1,2.8z"/>
	<g id="XMLID_2923_">
		<g>
			<path id="XMLID_51_" class="st12" d="M38,140.1l3,2.4l-2.9,5.5c-1.4,2.5,1,5,2.6,5.8c1.5,0.8,3.9,0.9,6.2,0.9l4-6.6l3,1.6
				l-5.3-9.8L38,140.1z M38.5,153.5l6.5,12c1.3,1.7,3.8,2.1,6.3,2h6.9v-11.4l-13-0.1C43.1,156.2,40.5,155.7,38.5,153.5z M79.5,131.3
				l-3.5,1.5l-3.4-5.2c-1.5-2.5-4.9-1.5-6.4-0.6s-2.7,3-3.8,4.9l3.8,6.7l-2.9,1.9l11.1,0.1L79.5,131.3z M67.5,125.2l-13.7-0.1
				c-2.1,0.3-3.6,2.3-4.8,4.6l-3.3,6l10,5.5l6.4-11.4C62.9,128,64.6,125.9,67.5,125.2z M68.1,171.7l0.4-3.8l6.2-0.5
				c2.9-0.1,3.7-3.5,3.6-5.3s-1.3-3.8-2.5-5.7l-7.7,0.1l-0.2-3.4l-5.5,9.6L68.1,171.7z M79.3,164.2l6.8-11.9c0.7-2-0.2-4.3-1.7-6.4
				l-3.6-5.8l-9.7,6l6.8,11.1C79,158.8,80.1,161.3,79.3,164.2z"/>
		</g>
	</g>
</g>
<g>
	<path class="st12" d="M24.6,99.5c0,0.2-0.1,0.3-0.2,0.4c-0.1,0.1-0.2,0.2-0.4,0.2c-0.1,0-0.2,0-0.3-0.1s-0.2-0.2-0.2-0.3l-0.7-1.8
		h-3.7l-0.7,1.8c0,0.1-0.1,0.2-0.2,0.3s-0.2,0.1-0.3,0.1c-0.2,0-0.3,0-0.4-0.1c-0.1-0.1-0.1-0.2-0.1-0.4c0,0,0-0.1,0-0.2l3.1-7.4
		c0.1-0.1,0.1-0.2,0.2-0.3c0.1-0.1,0.2-0.1,0.3-0.1c0.1,0,0.2,0,0.3,0.1c0.1,0.1,0.2,0.2,0.2,0.3l3,7.3
		C24.6,99.4,24.6,99.5,24.6,99.5z M19.5,96.8h2.8l-1.4-3.4L19.5,96.8z"/>
	<path class="st12" d="M30.4,92c0.4,0.2,0.6,0.5,0.9,0.9s0.3,0.8,0.3,1.3c0,0.5-0.1,0.9-0.3,1.3s-0.5,0.7-0.9,0.9
		c-0.4,0.2-0.8,0.3-1.2,0.3h-2.3v2.7c0,0.2-0.1,0.3-0.2,0.4c-0.1,0.1-0.2,0.2-0.4,0.2c-0.2,0-0.3-0.1-0.4-0.2
		c-0.1-0.1-0.2-0.2-0.2-0.4v-7.2c0-0.2,0.1-0.3,0.2-0.4s0.2-0.2,0.4-0.2h2.8C29.6,91.6,30,91.8,30.4,92z M29.8,95.5
		c0.2-0.1,0.3-0.3,0.4-0.6c0.1-0.2,0.2-0.5,0.2-0.7c0-0.4-0.1-0.8-0.4-1c-0.2-0.3-0.5-0.4-0.8-0.4h-2.3v3h2.3
		C29.4,95.7,29.6,95.7,29.8,95.5z"/>
	<path class="st12" d="M39.6,99.3c0,0.1,0.1,0.2,0.1,0.3c0,0.2-0.1,0.3-0.2,0.4c-0.1,0.1-0.2,0.1-0.4,0.1c-0.2,0-0.3,0-0.4-0.1
		c-0.2-0.1-0.4-0.4-0.6-0.7s-0.2-0.8-0.2-1.3c0-0.4-0.1-0.7-0.4-0.9c-0.2-0.2-0.6-0.3-0.9-0.3h-2.4v2.7c0,0.2,0,0.3-0.1,0.4
		s-0.2,0.2-0.4,0.2c-0.2,0-0.3-0.1-0.5-0.2c-0.1-0.1-0.2-0.2-0.2-0.4v-7.2c0-0.2,0.1-0.3,0.2-0.4s0.2-0.2,0.4-0.2H37
		c0.4,0,0.8,0.1,1.2,0.3c0.4,0.2,0.6,0.5,0.9,0.9s0.3,0.8,0.3,1.3c0,0.4-0.1,0.9-0.4,1.3c-0.2,0.4-0.5,0.7-0.9,0.9
		c0.3,0.2,0.5,0.4,0.7,0.6c0.2,0.3,0.3,0.6,0.3,0.9c0,0.5,0.1,0.8,0.1,0.9s0.1,0.3,0.3,0.4C39.5,99.1,39.6,99.2,39.6,99.3z
		 M37.5,95.5c0.2-0.1,0.3-0.3,0.4-0.6c0.1-0.2,0.2-0.5,0.2-0.8c0-0.4-0.1-0.7-0.4-1c-0.2-0.3-0.5-0.4-0.9-0.4h-2.7v3h2.7
		C37.1,95.8,37.3,95.7,37.5,95.5z"/>
	<path class="st12" d="M48.2,98c-0.3,0.7-0.8,1.2-1.4,1.6c-0.6,0.4-1.3,0.6-2.1,0.6c-0.8,0-1.5-0.2-2.1-0.6
		c-0.6-0.4-1.1-0.9-1.4-1.6s-0.5-1.4-0.5-2.2c0-0.8,0.2-1.5,0.5-2.2c0.3-0.7,0.8-1.2,1.4-1.6c0.6-0.4,1.3-0.6,2.1-0.6
		c0.8,0,1.5,0.2,2.1,0.6c0.6,0.4,1.1,0.9,1.4,1.6c0.3,0.7,0.5,1.4,0.5,2.2C48.7,96.7,48.5,97.4,48.2,98z M47.1,94.2
		c-0.2-0.5-0.6-0.9-1-1.1c-0.4-0.3-0.9-0.4-1.5-0.4s-1,0.1-1.5,0.4c-0.4,0.3-0.8,0.7-1,1.1c-0.2,0.5-0.4,1-0.4,1.6
		c0,0.6,0.1,1.1,0.4,1.6c0.2,0.5,0.6,0.9,1,1.1c0.4,0.3,0.9,0.4,1.5,0.4s1-0.1,1.5-0.4c0.4-0.3,0.8-0.7,1-1.1c0.2-0.5,0.4-1,0.4-1.6
		C47.5,95.3,47.3,94.7,47.1,94.2z"/>
	<path class="st12" d="M56.6,91.8c0.1,0.1,0.2,0.2,0.2,0.4c0,0.1,0,0.2-0.1,0.3l-3.1,7.2c-0.1,0.1-0.1,0.2-0.2,0.3
		c-0.1,0.1-0.2,0.1-0.3,0.1c-0.1,0-0.2,0-0.3-0.1s-0.2-0.1-0.2-0.3l-3.1-7.2c0-0.1,0-0.1,0-0.3c0-0.2,0.1-0.3,0.2-0.4
		c0.1-0.1,0.3-0.2,0.4-0.2c0.2,0,0.4,0.1,0.5,0.4l2.6,6.2l2.5-6.2c0.1-0.1,0.1-0.2,0.2-0.3s0.2-0.1,0.3-0.1
		C56.3,91.6,56.5,91.7,56.6,91.8z"/>
	<path class="st12" d="M63.3,99.1c0.1,0.1,0.2,0.2,0.2,0.4c0,0.2-0.1,0.3-0.2,0.4c-0.1,0.1-0.2,0.1-0.4,0.1h-4.2
		c-0.2,0-0.3-0.1-0.4-0.2c-0.1-0.1-0.2-0.2-0.2-0.4v-7.2c0-0.2,0.1-0.3,0.2-0.4s0.2-0.2,0.4-0.2h4.2c0.2,0,0.3,0.1,0.4,0.2
		c0.1,0.1,0.2,0.2,0.2,0.4c0,0.2-0.1,0.3-0.2,0.4c-0.1,0.1-0.2,0.1-0.4,0.1h-3.6v2.4h3c0.2,0,0.3,0.1,0.4,0.2s0.2,0.2,0.2,0.4
		c0,0.2-0.1,0.3-0.2,0.4c-0.1,0.1-0.2,0.1-0.4,0.1h-3v2.7h3.6C63.1,98.9,63.2,99,63.3,99.1z"/>
	<path class="st12" d="M71.3,92.6c0,0.1,0,0.3-0.1,0.4c-0.1,0.1-0.2,0.2-0.4,0.2c-0.1,0-0.2,0-0.3-0.1c-0.5-0.3-1-0.4-1.6-0.4
		c-0.6,0-1.1,0.1-1.6,0.4c-0.5,0.3-0.8,0.6-1.1,1.1s-0.4,1-0.4,1.6c0,0.7,0.1,1.2,0.4,1.7c0.3,0.5,0.6,0.8,1.1,1.1
		c0.5,0.3,1,0.4,1.6,0.4c0.6,0,1.1-0.1,1.6-0.4c0.1,0,0.2-0.1,0.3-0.1c0.2,0,0.3,0.1,0.4,0.2c0.1,0.1,0.1,0.2,0.1,0.4
		c0,0.1,0,0.2-0.1,0.3s-0.1,0.1-0.2,0.2c-0.3,0.2-0.7,0.3-1,0.4c-0.4,0.1-0.8,0.2-1.1,0.2c-0.8,0-1.5-0.2-2.1-0.5
		c-0.7-0.3-1.2-0.8-1.6-1.5c-0.4-0.7-0.6-1.4-0.6-2.3c0-0.8,0.2-1.5,0.6-2.2c0.4-0.7,0.9-1.2,1.5-1.5c0.7-0.4,1.4-0.6,2.2-0.6
		c0.8,0,1.5,0.2,2.2,0.6C71.2,92.2,71.3,92.4,71.3,92.6z"/>
	<path class="st12" d="M79.1,91.8c0.1,0.1,0.2,0.2,0.2,0.4v7.2c0,0.2-0.1,0.3-0.2,0.4c-0.1,0.1-0.3,0.2-0.4,0.2
		c-0.2,0-0.3-0.1-0.4-0.2c-0.1-0.1-0.2-0.3-0.2-0.4v-3.1h-4.3v3.1c0,0.2-0.1,0.3-0.2,0.4c-0.1,0.1-0.3,0.2-0.4,0.2
		c-0.2,0-0.3-0.1-0.4-0.2c-0.1-0.1-0.2-0.3-0.2-0.4v-7.2c0-0.2,0.1-0.3,0.2-0.4s0.3-0.2,0.4-0.2c0.2,0,0.3,0.1,0.4,0.2
		s0.2,0.2,0.2,0.4v3h4.3v-3c0-0.2,0.1-0.3,0.2-0.4s0.3-0.2,0.4-0.2C78.9,91.6,79,91.7,79.1,91.8z"/>
	<path class="st12" d="M87.8,99.5c0,0.2-0.1,0.3-0.2,0.4c-0.1,0.1-0.2,0.2-0.4,0.2c-0.1,0-0.2,0-0.3-0.1s-0.2-0.2-0.2-0.3l-0.7-1.8
		h-3.7l-0.7,1.8c0,0.1-0.1,0.2-0.2,0.3s-0.2,0.1-0.3,0.1c-0.2,0-0.3,0-0.4-0.1c-0.1-0.1-0.1-0.2-0.1-0.4c0,0,0-0.1,0-0.2l3.1-7.4
		c0.1-0.1,0.1-0.2,0.2-0.3c0.1-0.1,0.2-0.1,0.3-0.1c0.1,0,0.2,0,0.3,0.1c0.1,0.1,0.2,0.2,0.2,0.3l3,7.3
		C87.7,99.4,87.8,99.5,87.8,99.5z M82.7,96.8h2.8l-1.4-3.4L82.7,96.8z"/>
	<path class="st12" d="M94.9,96.2c0.3,0.3,0.4,0.8,0.4,1.4c0,0.9-0.3,1.5-0.8,1.9s-1.1,0.6-1.9,0.6h-3.1c-0.2,0-0.3-0.1-0.4-0.2
		C89,99.8,89,99.6,89,99.5v-7.2c0-0.2,0.1-0.3,0.2-0.4s0.2-0.2,0.4-0.2h3.1c0.7,0,1.3,0.2,1.7,0.5c0.4,0.4,0.6,0.9,0.6,1.6
		c0,0.4-0.1,0.7-0.3,1c-0.2,0.3-0.5,0.5-0.8,0.7C94.2,95.6,94.6,95.9,94.9,96.2z M93.3,93.1c-0.2-0.2-0.5-0.3-0.9-0.3h-2.3v2.3h2.3
		c0.3,0,0.6-0.1,0.8-0.3s0.3-0.5,0.3-0.9C93.6,93.6,93.5,93.3,93.3,93.1z M93.7,98.6c0.3-0.2,0.4-0.6,0.4-1c0-0.9-0.5-1.3-1.5-1.3
		h-2.4v2.7h2.4C93.1,98.9,93.4,98.8,93.7,98.6z"/>
	<path class="st12" d="M101.8,99.1c0.1,0.1,0.2,0.2,0.2,0.4c0,0.2-0.1,0.3-0.2,0.4s-0.2,0.2-0.4,0.2h-4.1c-0.2,0-0.3-0.1-0.4-0.2
		c-0.1-0.1-0.2-0.2-0.2-0.4v-7.2c0-0.2,0.1-0.3,0.2-0.4s0.3-0.2,0.4-0.2c0.2,0,0.3,0.1,0.4,0.2s0.2,0.2,0.2,0.4v6.7h3.4
		C101.6,98.9,101.7,99,101.8,99.1z"/>
	<path class="st12" d="M108.6,99.1c0.1,0.1,0.2,0.2,0.2,0.4c0,0.2-0.1,0.3-0.2,0.4c-0.1,0.1-0.2,0.1-0.4,0.1H104
		c-0.2,0-0.3-0.1-0.4-0.2c-0.1-0.1-0.2-0.2-0.2-0.4v-7.2c0-0.2,0.1-0.3,0.2-0.4s0.2-0.2,0.4-0.2h4.2c0.2,0,0.3,0.1,0.4,0.2
		c0.1,0.1,0.2,0.2,0.2,0.4c0,0.2-0.1,0.3-0.2,0.4c-0.1,0.1-0.2,0.1-0.4,0.1h-3.6v2.4h3c0.2,0,0.3,0.1,0.4,0.2s0.2,0.2,0.2,0.4
		c0,0.2-0.1,0.3-0.2,0.4c-0.1,0.1-0.2,0.1-0.4,0.1h-3v2.7h3.6C108.3,98.9,108.5,99,108.6,99.1z"/>
</g>
</svg>
