<?xml version="1.0" encoding="utf-8"?>
<!-- Generator: Adobe Illustrator 19.2.1, SVG Export Plug-In . SVG Version: 6.00 Build 0)  -->
<svg version="1.1" id="Capa_1" xmlns="http://www.w3.org/2000/svg" xmlns:xlink="http://www.w3.org/1999/xlink" x="0px" y="0px"
	 viewBox="0 0 137 306" style="enable-background:new 0 0 137 306;" xml:space="preserve">
<style type="text/css">
	.st0{fill:#00451C;}
	.st1{fill:#00421A;}
	.st2{fill:#004E22;}
	.st3{fill:#0B0C15;}
	.st4{fill:#2D2D2F;}
	.st5{fill:#FFFFFF;}
	.st6{fill:#040B26;}
	.st7{fill:url(#XMLID_2_);}
	.st8{fill:#00632B;}
	.st9{fill:#005C29;}
</style>
<path id="XMLID_2999_" class="st0" d="M100.4,304c1-34-6.2-55.5-21.6-64.4c17,7,25.1,28.5,24.3,64.5
	C102.2,304.1,101.3,304.1,100.4,304z"/>
<path id="XMLID_2998_" class="st1" d="M65,239.9c4.7-2,9.3-2.1,13.7-0.2c15.5,8.9,22.7,30.4,21.6,64.4c-0.2,0-0.4,0-0.6,0
	c-18.7-1.1-37.3-0.9-55.6,0.6C43.4,271.6,50.4,250,65,239.9z"/>
<path id="XMLID_2985_" class="st2" d="M14.8,53.1c0,0.1,0,0.3,0,0.4c0,0.6,0,1.3,0,1.9c1.4,80.4,4.4,157,9.1,229.8H24
	c0.1,2.8,0.3,5.7,0.4,8.5l0.1,2c0.1,0.9,0.1,1.7,0.2,2.6c0.1,4.5,2.7,6.6,7.9,6.4h10.2c0.5,0,0.9-0.1,1.4-0.1
	c-0.7-33,6.2-54.6,20.9-64.7c4.7-2,9.3-2.1,13.7-0.2c17,7,25.1,28.5,24.3,64.5c2.2,0.1,4.4,0.3,6.6,0.5c6.2,0.4,9.5-1.6,10-5.8v-2.3
	l0.2-9.9l0,0l5.4-234.4c-0.4-1-1.2-1.7-2.4-2.1c-0.7-0.2-1.7-0.4-2.8-0.4L18.9,49C16.2,49.5,14.8,50.9,14.8,53.1L14.8,53.1"/>
<path id="XMLID_2984_" class="st3" d="M14.3,50c-0.3-1-0.8-1.6-1.5-2l107.4,0.8c2-0.1,3.7,0,5.1,0.3v1.1v2.1c-0.4-1-1.2-1.7-2.4-2.1
	c-0.7-0.2-1.7-0.4-2.8-0.4L18.9,49c-2.7,0.6-4.1,1.9-4.2,4.1C14.8,51.8,14.6,50.8,14.3,50z"/>
<path id="XMLID_408_" class="st4" d="M125.7,32.3l-23.3-1.4c8.3,0.4-2.9,0.6-33.8,0.4c-29.7-0.6-40.4-0.9-32.2-1.2L13.1,31H10v4.4
	v10.8c-0.1,0.9,0.5,1.5,1.7,1.7h1l58,0.4l54.8,0.8h1c1.2-0.1,1.8-0.7,1.8-1.6l0.2-10.8l0.1-4.4H125.7z"/>
<g id="XMLID_186_">
	<g>
		<path id="XMLID_54_" class="st5" d="M43,142.1l3,2.4l-2.9,5.5c-1.4,2.5,1,5,2.6,5.8c1.5,0.8,3.9,0.9,6.2,0.9l4-6.6l3,1.6l-5.3-9.8
			L43,142.1z M43.5,155.5l6.5,12c1.3,1.7,3.8,2.1,6.3,2h6.9v-11.4l-13-0.1C48.1,158.2,45.5,157.7,43.5,155.5z M84.5,133.3l-3.5,1.5
			l-3.4-5.2c-1.5-2.5-4.9-1.5-6.4-0.6s-2.7,3-3.8,4.9l3.8,6.7l-2.9,1.9l11.1,0.1L84.5,133.3z M72.5,127.2l-13.7-0.1
			c-2.1,0.3-3.6,2.3-4.8,4.6l-3.3,6l10,5.5l6.4-11.4C67.9,130,69.6,127.9,72.5,127.2z M73.1,173.7l0.4-3.8l6.2-0.5
			c2.9-0.1,3.7-3.5,3.6-5.3s-1.3-3.8-2.5-5.7l-7.7,0.1l-0.2-3.4l-5.5,9.6L73.1,173.7z M84.3,166.2l6.8-11.9c0.7-2-0.2-4.3-1.7-6.4
			l-3.6-5.8l-9.7,6l6.8,11.1C84,160.8,85.1,163.3,84.3,166.2z"/>
	</g>
</g>
<path id="XMLID_490_" class="st6" d="M128.7,28.3l-76.3,0.6L15.9,29H9.8c-2.1,0-3.4,0.4-4,1.3l4.9,1.1c0.8,0,1.7,0,2.5,0
	c44.8,0.3,72.9,1.8,90.4,0.7c7.3,0.1,14.8,0.2,22.6,0.3c0.8,0,1.7,0,2.5,0l3.2-4C131.5,27.7,129.3,27.7,128.7,28.3z"/>
<linearGradient id="XMLID_2_" gradientUnits="userSpaceOnUse" x1="-2121.1663" y1="-252.2247" x2="-2111.0706" y2="-262.3204" gradientTransform="matrix(1 0 0 1 2127.6772 278.11)">
	<stop  offset="1.100000e-007" style="stop-color:#00441C"/>
	<stop  offset="0.9765" style="stop-color:#005023"/>
</linearGradient>
<path id="XMLID_2995_" class="st7" d="M9.8,11.4c-2.4,0.5-3.8,2.2-4,5.2v13.6c0.6-0.9,1.9-1.3,4-1.3h6.1V18.1
	C15.2,13.9,13.2,11.7,9.8,11.4z"/>
<path id="XMLID_2987_" class="st0" d="M18.4,3.9c-0.1-0.2-0.1-0.4-0.2-0.6c-0.2-0.4-0.4-0.6-0.7-0.7c-0.2-0.1-0.5-0.1-0.8,0v6.2h1.8
	L18.4,3.9 M121.2,7.4l0.5-4.9c-0.4,0.9-1.1,1.5-2.3,1.7c0,0.2,0,0.4,0,0.6l-0.7,4.4C120.3,9.4,121.1,8.8,121.2,7.4z"/>
<path id="XMLID_2982_" class="st5" d="M105.2,4V2.6H23.5V4H105.2z"/>
<path id="XMLID_2981_" class="st8" d="M117.8,2.6h-12.6V4H23.5V2.6h-2.3c-1.7-0.1-2.7,0.2-3,0.7c0.1,0.2,0.2,0.4,0.2,0.6v4.9
	l100.3,0.5l0.7-4.4c0-0.2,0-0.4,0-0.6C119.3,3.2,118.7,2.7,117.8,2.6z"/>
<path id="XMLID_2980_" class="st9" d="M121.7,2.5l-0.5,4.9c-0.1,1.4-0.9,2-2.5,1.9L18.4,8.8h-1.8V2.6V2C10.4,1.4,6.8,5.4,5.8,14v2.7
	c0.3-3,1.6-4.7,4-5.2c3.4,0.2,5.4,2.5,6,6.6V29l86.1,0.2l28.3-0.1c1.6-0.2,2.4-1.1,2.4-2.9v-15C131.7,3.9,127.4,1,121.7,2.5z"/>
<g>
	<path class="st5" d="M47.2,98c-0.3,0.7-0.8,1.2-1.4,1.6c-0.6,0.4-1.3,0.6-2.1,0.6c-0.8,0-1.5-0.2-2.1-0.6c-0.6-0.4-1.1-0.9-1.4-1.6
		s-0.5-1.4-0.5-2.2c0-0.8,0.2-1.5,0.5-2.2c0.3-0.7,0.8-1.2,1.4-1.6c0.6-0.4,1.3-0.6,2.1-0.6c0.8,0,1.5,0.2,2.1,0.6
		c0.6,0.4,1.1,0.9,1.4,1.6c0.3,0.7,0.5,1.4,0.5,2.2C47.7,96.7,47.6,97.4,47.2,98z M46.2,94.2c-0.2-0.5-0.6-0.9-1-1.1
		c-0.4-0.3-0.9-0.4-1.5-0.4s-1,0.1-1.5,0.4c-0.4,0.3-0.8,0.7-1,1.1c-0.2,0.5-0.4,1-0.4,1.6c0,0.6,0.1,1.1,0.4,1.6
		c0.2,0.5,0.6,0.9,1,1.1c0.4,0.3,0.9,0.4,1.5,0.4s1-0.1,1.5-0.4c0.4-0.3,0.8-0.7,1-1.1c0.2-0.5,0.4-1,0.4-1.6
		C46.5,95.3,46.4,94.7,46.2,94.2z"/>
	<path class="st5" d="M55.8,99.3c0,0.1,0.1,0.2,0.1,0.3c0,0.2-0.1,0.3-0.2,0.4c-0.1,0.1-0.2,0.1-0.4,0.1c-0.2,0-0.3,0-0.4-0.1
		c-0.2-0.1-0.4-0.4-0.6-0.7s-0.2-0.8-0.2-1.3c0-0.4-0.1-0.7-0.4-0.9c-0.2-0.2-0.6-0.3-0.9-0.3h-2.4v2.7c0,0.2,0,0.3-0.1,0.4
		s-0.2,0.2-0.4,0.2c-0.2,0-0.3-0.1-0.5-0.2c-0.1-0.1-0.2-0.2-0.2-0.4v-7.2c0-0.2,0.1-0.3,0.2-0.4s0.2-0.2,0.4-0.2h3.4
		c0.4,0,0.8,0.1,1.2,0.3c0.4,0.2,0.6,0.5,0.9,0.9s0.3,0.8,0.3,1.3c0,0.4-0.1,0.9-0.4,1.3c-0.2,0.4-0.5,0.7-0.9,0.9
		c0.3,0.2,0.5,0.4,0.7,0.6c0.2,0.3,0.3,0.6,0.3,0.9c0,0.5,0.1,0.8,0.1,0.9s0.1,0.3,0.3,0.4C55.7,99.1,55.8,99.2,55.8,99.3z
		 M53.8,95.5c0.2-0.1,0.3-0.3,0.4-0.6c0.1-0.2,0.2-0.5,0.2-0.8c0-0.4-0.1-0.7-0.4-1c-0.2-0.3-0.5-0.4-0.9-0.4h-2.7v3h2.7
		C53.4,95.8,53.6,95.7,53.8,95.5z"/>
	<path class="st5" d="M63.9,95.8C64,95.9,64,96,64,96.2v2.7c0,0.2-0.1,0.4-0.3,0.5c-0.4,0.2-0.8,0.4-1.2,0.6
		c-0.4,0.1-0.9,0.2-1.4,0.2c-0.8,0-1.5-0.2-2.2-0.6c-0.7-0.4-1.2-0.9-1.6-1.6s-0.6-1.4-0.6-2.2s0.2-1.5,0.6-2.2s0.9-1.2,1.6-1.6
		c0.7-0.4,1.4-0.6,2.2-0.6c0.4,0,0.8,0,1.2,0.1c0.4,0.1,0.7,0.2,1,0.4c0.1,0.1,0.2,0.1,0.2,0.2c0,0.1,0.1,0.2,0.1,0.3
		c0,0.2-0.1,0.3-0.2,0.4c-0.1,0.1-0.2,0.2-0.4,0.2c-0.1,0-0.2,0-0.3-0.1c-0.5-0.2-1-0.4-1.6-0.4c-0.6,0-1.1,0.1-1.6,0.4
		c-0.5,0.3-0.9,0.7-1.1,1.2c-0.3,0.5-0.4,1-0.4,1.6c0,0.6,0.1,1.1,0.4,1.6c0.3,0.5,0.7,0.9,1.1,1.2c0.5,0.3,1,0.4,1.6,0.4
		c0.3,0,0.6,0,0.9-0.1c0.3-0.1,0.6-0.1,0.8-0.3v-1.9h-1.5c-0.2,0-0.3-0.1-0.4-0.2c-0.1-0.1-0.2-0.2-0.2-0.4c0-0.2,0.1-0.3,0.2-0.4
		c0.1-0.1,0.2-0.2,0.4-0.2h2.1C63.6,95.6,63.8,95.7,63.9,95.8z"/>
	<path class="st5" d="M72.1,99.5c0,0.2-0.1,0.3-0.2,0.4c-0.1,0.1-0.2,0.2-0.4,0.2c-0.1,0-0.2,0-0.3-0.1s-0.2-0.2-0.2-0.3l-0.7-1.8
		h-3.7l-0.7,1.8c0,0.1-0.1,0.2-0.2,0.3s-0.2,0.1-0.3,0.1c-0.2,0-0.3,0-0.4-0.1c-0.1-0.1-0.1-0.2-0.1-0.4c0,0,0-0.1,0-0.2l3.1-7.4
		c0.1-0.1,0.1-0.2,0.2-0.3c0.1-0.1,0.2-0.1,0.3-0.1c0.1,0,0.2,0,0.3,0.1c0.1,0.1,0.2,0.2,0.2,0.3l3,7.3
		C72.1,99.4,72.1,99.5,72.1,99.5z M67.1,96.8h2.8l-1.4-3.4L67.1,96.8z M68.3,91.1c-0.1-0.1-0.1-0.1-0.1-0.2s0-0.2,0.1-0.3l1.1-0.9
		c0.2-0.1,0.3-0.2,0.5-0.2c0.1,0,0.3,0,0.4,0.1c0.1,0.1,0.2,0.2,0.2,0.3c0,0.1,0,0.2-0.1,0.3c-0.1,0.1-0.2,0.2-0.3,0.2l-1.2,0.6
		c-0.1,0-0.2,0.1-0.3,0.1C68.4,91.2,68.3,91.1,68.3,91.1z"/>
	<path class="st5" d="M80,91.8c0.1,0.1,0.1,0.2,0.1,0.4v7.3c0,0.2-0.1,0.3-0.2,0.4c-0.1,0.1-0.2,0.2-0.4,0.2c-0.1,0-0.2,0-0.3,0
		c-0.1,0-0.2-0.1-0.2-0.1l-4.7-6.1v5.8c0,0.2,0,0.3-0.2,0.4c-0.1,0.1-0.2,0.1-0.4,0.1c-0.2,0-0.3,0-0.4-0.1
		c-0.1-0.1-0.1-0.2-0.1-0.4v-7.3c0-0.2,0.1-0.3,0.2-0.4c0.1-0.1,0.2-0.2,0.4-0.2c0.1,0,0.2,0,0.3,0.1c0.1,0,0.2,0.1,0.2,0.2l4.7,6.2
		v-5.8c0-0.2,0-0.3,0.1-0.4c0.1-0.1,0.2-0.1,0.4-0.1C79.8,91.6,79.9,91.7,80,91.8z"/>
	<path class="st5" d="M83.1,99.9c-0.1,0.1-0.3,0.2-0.4,0.2c-0.2,0-0.3-0.1-0.4-0.2c-0.1-0.1-0.2-0.3-0.2-0.4v-7.2
		c0-0.2,0.1-0.3,0.2-0.4s0.3-0.2,0.4-0.2c0.2,0,0.3,0.1,0.4,0.2s0.2,0.2,0.2,0.4v7.2C83.3,99.6,83.3,99.8,83.1,99.9z"/>
	<path class="st5" d="M91.6,92.6c0,0.1,0,0.3-0.1,0.4c-0.1,0.1-0.2,0.2-0.4,0.2c-0.1,0-0.2,0-0.3-0.1c-0.5-0.3-1-0.4-1.6-0.4
		c-0.6,0-1.1,0.1-1.6,0.4c-0.5,0.3-0.8,0.6-1.1,1.1s-0.4,1-0.4,1.6c0,0.7,0.1,1.2,0.4,1.7c0.3,0.5,0.6,0.8,1.1,1.1
		c0.5,0.3,1,0.4,1.6,0.4c0.6,0,1.1-0.1,1.6-0.4c0.1,0,0.2-0.1,0.3-0.1c0.2,0,0.3,0.1,0.4,0.2c0.1,0.1,0.1,0.2,0.1,0.4
		c0,0.1,0,0.2-0.1,0.3s-0.1,0.1-0.2,0.2c-0.3,0.2-0.7,0.3-1,0.4c-0.4,0.1-0.8,0.2-1.1,0.2c-0.8,0-1.5-0.2-2.1-0.5
		c-0.7-0.3-1.2-0.8-1.6-1.5c-0.4-0.7-0.6-1.4-0.6-2.3c0-0.8,0.2-1.5,0.6-2.2c0.4-0.7,0.9-1.2,1.5-1.5c0.7-0.4,1.4-0.6,2.2-0.6
		c0.8,0,1.5,0.2,2.2,0.6C91.5,92.2,91.6,92.4,91.6,92.6z"/>
	<path class="st5" d="M100.1,98c-0.3,0.7-0.8,1.2-1.4,1.6c-0.6,0.4-1.3,0.6-2.1,0.6c-0.8,0-1.5-0.2-2.1-0.6
		c-0.6-0.4-1.1-0.9-1.4-1.6s-0.5-1.4-0.5-2.2c0-0.8,0.2-1.5,0.5-2.2c0.3-0.7,0.8-1.2,1.4-1.6c0.6-0.4,1.3-0.6,2.1-0.6
		c0.8,0,1.5,0.2,2.1,0.6c0.6,0.4,1.1,0.9,1.4,1.6c0.3,0.7,0.5,1.4,0.5,2.2C100.6,96.7,100.4,97.4,100.1,98z M99,94.2
		c-0.2-0.5-0.6-0.9-1-1.1c-0.4-0.3-0.9-0.4-1.5-0.4s-1,0.1-1.5,0.4c-0.4,0.3-0.8,0.7-1,1.1c-0.2,0.5-0.4,1-0.4,1.6
		c0,0.6,0.1,1.1,0.4,1.6c0.2,0.5,0.6,0.9,1,1.1c0.4,0.3,0.9,0.4,1.5,0.4s1-0.1,1.5-0.4c0.4-0.3,0.8-0.7,1-1.1c0.2-0.5,0.4-1,0.4-1.6
		C99.4,95.3,99.2,94.7,99,94.2z"/>
</g>
</svg>
