<?xml version="1.0" encoding="utf-8"?>
<!-- Generator: Adobe Illustrator 19.2.1, SVG Export Plug-In . SVG Version: 6.00 Build 0)  -->
<svg version="1.1" id="Capa_1" xmlns="http://www.w3.org/2000/svg" xmlns:xlink="http://www.w3.org/1999/xlink" x="0px" y="0px"
	 viewBox="0 0 137 306" style="enable-background:new 0 0 137 306;" xml:space="preserve">
<style type="text/css">
	.st0{fill:#00451C;}
	.st1{fill:#00421A;}
	.st2{fill:#004E22;}
	.st3{fill:#0B0C15;}
	.st4{fill:#2D2D2F;}
	.st5{fill:#FFFFFF;}
	.st6{fill:#040B26;}
	.st7{fill:url(#XMLID_2_);}
	.st8{fill:#00632B;}
	.st9{fill:#005C29;}
</style>
<path id="XMLID_2999_" class="st0" d="M100.4,304c1-34-6.2-55.5-21.6-64.4c17,7,25.1,28.5,24.3,64.5
	C102.2,304.1,101.3,304.1,100.4,304z"/>
<path id="XMLID_2998_" class="st1" d="M65,239.9c4.7-2,9.3-2.1,13.7-0.2c15.5,8.9,22.7,30.4,21.6,64.4c-0.2,0-0.4,0-0.6,0
	c-18.7-1.1-37.3-0.9-55.6,0.6C43.4,271.6,50.4,250,65,239.9z"/>
<path id="XMLID_2985_" class="st2" d="M14.8,53.1c0,0.1,0,0.3,0,0.4c0,0.6,0,1.3,0,1.9c1.4,80.4,4.4,157,9.1,229.8H24
	c0.1,2.8,0.3,5.7,0.4,8.5l0.1,2c0.1,0.9,0.1,1.7,0.2,2.6c0.1,4.5,2.7,6.6,7.9,6.4h10.2c0.5,0,0.9-0.1,1.4-0.1
	c-0.7-33,6.2-54.6,20.9-64.7c4.7-2,9.3-2.1,13.7-0.2c17,7,25.1,28.5,24.3,64.5c2.2,0.1,4.4,0.3,6.6,0.5c6.2,0.4,9.5-1.6,10-5.8
	l0-2.3l0.2-9.9h0l5.4-234.4c-0.4-1-1.2-1.7-2.4-2.1c-0.7-0.2-1.7-0.4-2.8-0.4L18.9,49C16.2,49.5,14.8,50.9,14.8,53.1L14.8,53.1"/>
<path id="XMLID_2984_" class="st3" d="M14.3,50c-0.3-1-0.8-1.6-1.5-2l107.4,0.8c2-0.1,3.7,0,5.1,0.3l0,1.1l0,2.1
	c-0.4-1-1.2-1.7-2.4-2.1c-0.7-0.2-1.7-0.4-2.8-0.4L18.9,49c-2.7,0.6-4.1,1.9-4.2,4.1C14.8,51.8,14.6,50.8,14.3,50z"/>
<path id="XMLID_408_" class="st4" d="M125.7,32.3l-23.3-1.4c8.3,0.4-2.9,0.6-33.8,0.4c-29.7-0.6-40.4-0.9-32.2-1.2l-23.3,0.9l-3.1,0
	v4.4v10.8c-0.1,0.9,0.5,1.5,1.7,1.7h1l58,0.4l54.8,0.8l1,0c1.2-0.1,1.8-0.7,1.8-1.6l0.2-10.8l0.1-4.4L125.7,32.3z"/>
<g id="XMLID_186_">
	<g>
		<path id="XMLID_54_" class="st5" d="M43,142.1l3,2.4l-2.9,5.5c-1.4,2.5,1,5,2.6,5.8c1.5,0.8,3.9,0.9,6.2,0.9l4-6.6l3,1.6l-5.3-9.8
			L43,142.1z M43.5,155.5l6.5,12c1.3,1.7,3.8,2.1,6.3,2h6.9v-11.4l-13-0.1C48.1,158.2,45.5,157.7,43.5,155.5z M84.5,133.3l-3.5,1.5
			l-3.4-5.2c-1.5-2.5-4.9-1.5-6.4-0.6c-1.5,0.9-2.7,3-3.8,4.9l3.8,6.7l-2.9,1.9l11.1,0.1L84.5,133.3z M72.5,127.2l-13.7-0.1
			c-2.1,0.3-3.6,2.3-4.8,4.6l-3.3,6l10,5.5l6.4-11.4C67.9,130,69.6,127.9,72.5,127.2z M73.1,173.7l0.4-3.8l6.2-0.5
			c2.9-0.1,3.7-3.5,3.6-5.3c-0.1-1.8-1.3-3.8-2.5-5.7l-7.7,0.1l-0.2-3.4l-5.5,9.6L73.1,173.7z M84.3,166.2l6.8-11.9
			c0.7-2-0.2-4.3-1.7-6.4l-3.6-5.8l-9.7,6l6.8,11.1C84,160.8,85.1,163.3,84.3,166.2z"/>
	</g>
</g>
<path id="XMLID_490_" class="st6" d="M128.7,28.3l-76.3,0.6L15.9,29l-6.1,0c-2.1,0-3.4,0.4-4,1.3l4.9,1.1c0.8,0,1.7,0,2.5,0
	c44.8,0.3,72.9,1.8,90.4,0.7c7.3,0.1,14.8,0.2,22.6,0.3c0.8,0,1.7,0,2.5,0l3.2-4C131.5,27.7,129.3,27.7,128.7,28.3z"/>
<linearGradient id="XMLID_2_" gradientUnits="userSpaceOnUse" x1="-2121.1255" y1="282.1839" x2="-2111.0298" y2="292.2796" gradientTransform="matrix(1 0 0 -1 2127.6772 308.11)">
	<stop  offset="1.100000e-007" style="stop-color:#00441C"/>
	<stop  offset="0.9765" style="stop-color:#005023"/>
</linearGradient>
<path id="XMLID_2995_" class="st7" d="M9.8,11.4c-2.4,0.5-3.8,2.2-4,5.2v13.6c0.6-0.9,1.9-1.3,4-1.3l6.1,0V18.1
	C15.2,13.9,13.2,11.7,9.8,11.4z"/>
<path id="XMLID_2987_" class="st0" d="M18.4,3.9c-0.1-0.2-0.1-0.4-0.2-0.6c-0.2-0.4-0.4-0.6-0.7-0.7c-0.2-0.1-0.5-0.1-0.8,0v6.2h1.8
	V3.9 M121.2,7.4l0.5-4.9c-0.4,0.9-1.1,1.5-2.3,1.7c0,0.2,0,0.4,0,0.6l-0.7,4.4C120.3,9.4,121.1,8.8,121.2,7.4z"/>
<path id="XMLID_2982_" class="st5" d="M105.2,4V2.6H23.5V4H105.2z"/>
<path id="XMLID_2981_" class="st8" d="M117.8,2.6h-12.6V4H23.5V2.6h-2.3c-1.7-0.1-2.7,0.2-3,0.7c0.1,0.2,0.2,0.4,0.2,0.6v4.9
	l100.3,0.5l0.7-4.4c0-0.2,0-0.4,0-0.6C119.3,3.2,118.7,2.7,117.8,2.6z"/>
<path id="XMLID_2980_" class="st9" d="M121.7,2.5l-0.5,4.9c-0.1,1.4-0.9,2-2.5,1.9L18.4,8.8h-1.8V2.6V2c-6.2-0.6-9.8,3.4-10.8,12
	v2.7c0.3-3,1.6-4.7,4-5.2c3.4,0.2,5.4,2.5,6,6.6V29l86.1,0.2l28.3-0.1c1.6-0.2,2.4-1.1,2.4-2.9v-15C131.7,3.9,127.4,1,121.7,2.5z"/>
</svg>
