<?xml version="1.0" encoding="utf-8"?>
<!-- Generator: Adobe Illustrator 23.1.0, SVG Export Plug-In . SVG Version: 6.00 Build 0)  -->
<svg version="1.1" id="Capa_1" xmlns="http://www.w3.org/2000/svg" xmlns:xlink="http://www.w3.org/1999/xlink" x="0px" y="0px"
	 viewBox="0 0 90 156" style="enable-background:new 0 0 90 156;" xml:space="preserve">
<style type="text/css">
	.st0{fill:#89AC41;}
</style>
<g id="XMLID_467_">
	<path id="XMLID_431_" class="st0" d="M90,156.1c-30.1,0-60,0-90,0c0-47.5,0-94.8,0-142.5c9.4,0,18.8,0,28.4,0c0-4.7,0-9,0-13.6
		c11.1,0,21.9,0,33,0c0,4.4,0,8.7,0,13.3c9.6,0,18.9,0,28.5,0C90,61,90,108.4,90,156.1z M79.1,145.1c0-40.4,0-80.4,0-120.5
		c-22.9,0-45.5,0-68.3,0c0,40.2,0,80.3,0,120.5C33.7,145.1,56.4,145.1,79.1,145.1z"/>
</g>
</svg>
