<?xml version="1.0" encoding="utf-8"?>
<!-- Generator: Adobe Illustrator 23.1.0, SVG Export Plug-In . SVG Version: 6.00 Build 0)  -->
<svg version="1.1" id="Capa_1" xmlns="http://www.w3.org/2000/svg" xmlns:xlink="http://www.w3.org/1999/xlink" x="0px" y="0px"
	 viewBox="0 0 47 79" style="enable-background:new 0 0 47 79;" xml:space="preserve">
<style type="text/css">
	.st0{fill:#4F5F2C;}
	.st1{fill:#556827;}
	.st2{fill:#66792B;}
	.st3{fill:#62782C;}
</style>
<g id="XMLID_268_">
	<g id="XMLID_723_">
		<g id="XMLID_780_">
			<path id="XMLID_787_" class="st0" d="M14.8,61.9c0,0,11.1-6.7,14.8-21c2.9-11.3-6.6-22.7-8.8-26.5c-2-3.4-5.4-7.5-5.9-12.5
				c-0.4-3.6-1.6,0.6-1.6,0.6s-1.8,6.9-3,10.7C8.9,17.1,3.7,27.4,4,36.2c0.3,9.4,4.6,17.6,8.4,23.9C14.3,63.1,14.8,61.9,14.8,61.9z"
				/>
			<path id="XMLID_784_" class="st1" d="M14.4,61.5c0,0-1.3-1.5-2.4-4.5c-1.2-3-3.2-5.8-3.2-5.8S7.2,47,7,44.8
				c-0.3-2.5,0.3-2.4,1.8-0.6c1.4,1.8,2.2,0.8,2.1,0.6c-2.1-3.2-3.7-8.1-3.7-9.5c-0.1-2.6,3.8,4.6,4,4.1c0.1-0.3-2.6-5.2-3.1-6.8
				c-0.5-1.4-2.1-6.1-0.1-5c0.6,0.3,3,3.5,3.4,4.2c0.5,0.8,1.9,3.8,2.2,3.7c0.3-0.1-0.2-1.7-0.3-2.1c-0.1-0.3-2.9-5.5-3.3-6.3
				c-0.6-1.1-1.1-4.7,0.1-4.2c1,0.5,1.7,2.6,2.9,3.6c0.9,0.8,2.2,2,2.2,1.3c0-1.3-3-3.8-3.3-4.4c-1-1.9-1.1-3.6-1-4.9
				c0.1-1.6,0.5-4.7,0.8-6.2c0.5-2.6,2.4-10.1,2.8-10.1c0.5,0,0.4,5,0.7,7c0.1,0.7,0.2,2.2,0.7,2.4c0.8,0.5,0.6-0.9,1.4-1.3
				c0.9-0.6-0.4,5.5,0,6.9c0.2,0.9,0.8-1.3,1.5-2.6c0.9-1.7,1.2,5.2,1.5,6.9c0.1,0.4,0,1.3,0.4,1.4c0.6,0.1,1.5-1.5,2.1-1.3
				c1.1,0.3,1.2,3.2,1.2,4.3c0,1.1-1,4.4-1,4.4s-0.6,2.3-0.8,3.4c-0.1,0.7,1.3-1.2,2-1.7c0.6-0.4,1.5-2.8,2.2-2.6
				c0.7,0.2-0.2,3.8-0.3,4.5c-0.2,1-0.9,3.1-1.5,4.4c-0.5,1.1-2.9,5.2-3,5.8c-0.5,2.9,3.9-8,6.3-7.6c0.6,0.1,0.5,1.6,0.5,2.2
				c0,2.6-1,8-2.3,10.3c-0.6,1.1-2.4,3-3.1,4.1c-0.4,0.6-1.2,1.5-1.6,2.1C19.8,57,15,61.1,14.4,61.5z"/>
			<path id="XMLID_781_" class="st2" d="M19.9,29.6c-0.2,0.3-0.3,0.6-0.4,1c-0.1,0.2-0.1,0.4-0.2,0.5c-0.1,0.2-0.1,0.4-0.2,0.6
				c-0.3,0.7-0.6,1.5-1.1,1.8c0,0-0.1-0.1-0.1-0.1c0,0-0.1,0-0.2,0c0,0,0,0,0-0.1l0.1-0.1c0.7-0.6,1.2-1.9,1.5-2.9
				c0.1-0.2,0.1-0.3,0.2-0.5c0,0,0-0.1,0.1-0.1c0.1-0.3,0.2-0.7,0.3-1.1c0.1-0.3,0.2-0.6,0.3-0.9c0,0.1,0,0.3-0.1,0.4
				c-0.1,0.5-0.2,1-0.2,1.2L19.9,29.6L19.9,29.6z"/>
		</g>
		<g id="XMLID_724_">
			<path id="XMLID_777_" class="st3" d="M11.6,52.8c-0.8-1.1-2-5.5-1.8-5.5c0,0,0-0.1,0-0.1c-0.1,0.1-0.1,0.1-0.1,0
				c-0.5,0.9,1,6.7,4.9,10.8c0.1-0.1,0.1-0.1,0.1,0c0-0.1,0-0.1,0.1-0.1C14.7,57.8,11.9,53.2,11.6,52.8
				C11.5,52.6,11.6,52.8,11.6,52.8z"/>
			<path id="XMLID_774_" class="st3" d="M11,43.2c-0.7-1.2-2.3-6.9-2.4-6.9c0.1,0,0-0.1-0.1-0.2c0,0.1-0.1,0.1-0.1,0
				c-0.2,1.1,1.2,3.1,0.9,4.5c1.3,0.2,1,5.1,6.4,7.9c0-0.1,0.1-0.1,0.1,0c0-0.1,0-0.1,0-0.1C15.2,49.1,11.3,43.7,11,43.2
				C10.9,43,11,43.2,11,43.2z"/>
			<path id="XMLID_771_" class="st3" d="M12.1,36.6c-0.8-1.1-3.2-5.9-3.1-5.9c0.1,0-0.1-0.1-0.1-0.1c0,0.1,0,0.1-0.1,0
				c0,0.3,0.9,3.5,1.4,3.8c0.2,0.4,5.3,8.7,5.7,7.7c0,0,0,0,0,0c0-0.1,0-0.1,0.1-0.1c0,0,0,0-0.1,0C15.5,40.8,13,37.6,12.1,36.6
				C12,36.5,12.2,36.6,12.1,36.6z"/>
			<path id="XMLID_768_" class="st3" d="M13.5,30.5c-0.7-0.9-2.2-4.1-2-4.1c0,0-0.1-0.1-0.1-0.1c0,0.1-0.1,0.1-0.1,0
				c-0.5,0.4,3.1,7.3,5.3,8.9c0-0.1,0-0.1,0.1-0.1c0,0,0,0-0.1,0C16.4,34.2,13.8,31.6,13.5,30.5z"/>
			<path id="XMLID_765_" class="st3" d="M21.5,48.7c1.2-1.9,2.8-4,3.3-6c-0.1,0.1-0.1,0-0.1-0.1c-3,2.9-3.2,7.8-9.6,11.2
				c0,0-0.4,0.2-0.4,0.2c0.1,0.1,0.1,0.1,0,0.1c-0.1,0.7,4.4-2.2,5-3.3C19.8,50.7,21.5,48.8,21.5,48.7z"/>
			<path id="XMLID_762_" class="st3" d="M21.5,41.3c1-1.9,3.4-6.5,2.1-7.8c0,0.1-0.1,0.1-0.1,0c0.1,7.4-7.1,12-7.9,13.2
				c0.1,0,0.1,0.1,0.1,0.1C17.4,45.7,18.8,44.5,21.5,41.3C21.6,41.2,21.4,41.4,21.5,41.3z"/>
			<path id="XMLID_759_" class="st3" d="M20.6,31.5c0.8-2.2,2.6-7,1.4-8.4c0.1,1.6-0.2,2.3-0.5,3.9c-0.1,0.7-1.5,5.2-5.1,11.6
				c0.1,0,0.1,0.1,0,0.1c0.1,0,0.1,0,0.1,0C16.8,38.9,20.4,32.3,20.6,31.5C20.7,31.3,20.6,31.6,20.6,31.5z"/>
			<path id="XMLID_756_" class="st3" d="M18.8,23.3c0.2-1.2-0.5-6.4-1-6.1c0.1,1,0.9,2.8,0.3,6.8c0.2,0-1.8,3.9-2,4.7
				c0.1,0,0.1,0.1,0.1,0.1c0.1,0,0.1,0,0.1,0C16.7,29,18.8,23.9,18.8,23.3C18.9,23.2,18.8,23.4,18.8,23.3z"/>
			<path id="XMLID_753_" class="st3" d="M13.7,22.2c0.5,1.1,1.2,2.3,1.9,2.4c-0.1-0.1,0.2,0.7,0.4,0.5c0,0,0,0,0,0
				c-0.1-0.1,0,0.2,0,0.1c-0.1,0-0.1,0,0,0.1c-2.5,0.3-3.3-6.3-3.5-6.3c0.1,0.1,0.1,0.1,0.1,0c0,0,0,0,0,0
				C12.8,19.6,13.6,21.7,13.7,22.2C13.7,22.2,13.7,22.1,13.7,22.2z"/>
			<path id="XMLID_750_" class="st3" d="M15.7,15.3c0.7-1.2,1.2-2.8,1.3-3.6c0.2-0.1,0.2,0,0.4-0.4c0,0.1-1.9,6.4-2.4,6.3
				c-0.1-0.1,0-0.3,0-0.3C15.1,16.7,15.7,15.3,15.7,15.3z"/>
			<path id="XMLID_738_" class="st3" d="M14.4,2.6c-2,14.8,3.5,24.8,1.1,40C14.7,53,12.8,66.7,16,78.4c0.1,0,0.3,0.1,0.4,0.1
				c0.3-0.1,0.4-0.1,0.7-0.4c-2.9-9.6-2.4-19.4-1.3-28.7c0.4-3.1,0-7.8,1-10.7c0.4-2.1-0.1-7.8-0.4-11c0-0.3-0.5-4.5-0.5-4.4
				c0,0.2-0.2-3.6-0.5-4.1c-1.4-6.6-1-14-1-13.7C14.1,5,14.4,3.3,14.4,2.6z M14.3,6C14.5,6.9,14.3,5.6,14.3,6
				C14.3,6,14.3,5.9,14.3,6z"/>
		</g>
	</g>
	<g id="XMLID_666_">
		<g id="XMLID_714_">
			<path id="XMLID_722_" class="st0" d="M11.7,64.3c0,0,1-3.3-0.9-6.8c-1.5-2.7-5.4-3.3-6.5-3.6c-1-0.3-2.4-0.5-3.4-1.4
				c-0.7-0.6-0.2,0.4-0.2,0.4s0.9,1.7,1.3,2.6c0.4,1,1.3,3.9,3,5.6c1.8,1.8,4.1,2.6,6,3.2C11.8,64.6,11.7,64.3,11.7,64.3z"/>
			<path id="XMLID_718_" class="st1" d="M11.6,64.2c0,0-0.5-0.1-1.3-0.4c-0.8-0.4-1.7-0.6-1.7-0.6s-1.1-0.5-1.5-0.9
				c-0.5-0.4-0.4-0.5,0.2-0.4c0.6,0.1,0.6-0.2,0.5-0.3c-1-0.2-2.2-0.9-2.5-1.2c-0.5-0.5,1.6,0.2,1.5,0.1c0-0.1-1.5-0.5-1.8-0.8
				c-0.3-0.2-1.5-0.8-0.9-1c0.2,0,1.2,0.2,1.4,0.2c0.2,0.1,1.1,0.4,1.1,0.3c0-0.1-0.3-0.3-0.4-0.4c-0.1,0-1.6-0.6-1.8-0.6
				c-0.3-0.1-1.1-0.7-0.7-0.8c0.3-0.1,0.8,0.2,1.2,0.2c0.3,0,0.8,0,0.7-0.1c-0.2-0.2-1.3-0.2-1.4-0.3c-0.5-0.2-0.9-0.5-1.1-0.8
				c-0.3-0.3-0.8-1-1-1.4c-0.4-0.6-1.4-2.4-1.3-2.5c0.1-0.1,1,0.9,1.4,1.2c0.1,0.1,0.4,0.4,0.6,0.4c0.2-0.1,0-0.3,0-0.5
				c0.1-0.3,0.9,1.1,1.3,1.4c0.2,0.1-0.1-0.4-0.2-0.8c-0.1-0.5,1.2,0.8,1.6,1.1c0.1,0.1,0.2,0.3,0.3,0.2c0.1-0.1,0-0.6,0.2-0.6
				c0.3-0.1,0.8,0.4,1,0.6c0.2,0.2,0.6,1,0.6,1s0.3,0.6,0.5,0.8c0.1,0.1,0-0.5,0.1-0.7c0-0.2-0.2-0.8-0.1-0.9
				c0.2-0.1,0.6,0.8,0.7,0.9c0.2,0.2,0.4,0.8,0.5,1.1c0.1,0.3,0.4,1.5,0.5,1.7c0.4,0.7-0.7-2.3-0.1-2.6c0.1-0.1,0.4,0.2,0.5,0.3
				c0.5,0.5,1.3,1.8,1.4,2.4c0.1,0.3,0.1,1,0.1,1.4c0,0.2,0,0.5,0.1,0.7C11.8,62.4,11.6,64.1,11.6,64.2z"/>
			<path id="XMLID_715_" class="st2" d="M6.9,57c0,0.1,0.1,0.2,0.1,0.3c0,0,0,0.1,0.1,0.1c0,0.1,0,0.1,0.1,0.2
				c0.1,0.2,0.2,0.4,0.1,0.5c0,0,0,0,0,0c0,0,0,0,0,0c0,0,0,0,0,0l0-0.1c0-0.2-0.1-0.6-0.2-0.8c0,0,0-0.1,0-0.1
				C6.9,57.1,6.8,57.1,6.9,57c-0.1,0-0.1-0.1-0.2-0.2c0-0.1-0.1-0.1-0.1-0.2c0,0,0,0.1,0.1,0.1C6.7,56.8,6.8,56.9,6.9,57L6.9,57
				L6.9,57z"/>
		</g>
		<g id="XMLID_667_">
			<path id="XMLID_711_" class="st3" d="M9.4,63C9.1,63,8,62.3,8.1,62.3c0,0,0,0,0,0c0,0,0,0,0,0c0.1,0.3,1.4,1.1,2.9,1.2
				c0,0,0,0,0,0c0,0,0,0,0,0C11,63.5,9.6,63.1,9.4,63C9.4,63,9.4,63,9.4,63z"/>
			<path id="XMLID_708_" class="st3" d="M7.6,61.3c-0.4-0.1-1.7-0.9-1.7-0.9c0,0,0,0,0,0c0,0,0,0,0,0c0.2,0.3,0.8,0.4,1,0.7
				c0.3-0.2,1.1,0.8,2.7,0.4c0,0,0,0,0,0c0,0,0,0,0,0C9.5,61.7,7.7,61.3,7.6,61.3C7.5,61.3,7.6,61.3,7.6,61.3z"/>
			<path id="XMLID_705_" class="st3" d="M6.6,59.8c-0.3-0.1-1.7-0.6-1.7-0.6c0,0,0,0,0,0c0,0,0,0,0,0c0.1,0.1,0.8,0.5,1,0.5
				c0.1,0,2.6,0.7,2.5,0.5c0,0,0,0,0,0c0,0,0,0,0,0c0,0,0,0,0,0C8,60,6.9,59.8,6.6,59.8C6.6,59.8,6.6,59.8,6.6,59.8z"/>
			<path id="XMLID_702_" class="st3" d="M5.8,58.3c-0.3,0-1.2-0.4-1.1-0.4c0,0,0,0,0,0c0,0,0,0,0,0c0,0.2,1.9,0.9,2.7,0.8
				c0,0,0,0,0,0c0,0,0,0,0,0C7,58.5,6,58.5,5.8,58.3z"/>
			<path id="XMLID_699_" class="st3" d="M10.6,60.4c-0.1-0.6-0.2-1.3-0.4-1.8c0,0,0,0,0,0c-0.1,1.1,0.8,2.1,0.1,3.9c0,0,0,0.1,0,0.1
				c0,0,0,0,0,0c0.1,0.2,0.5-1.2,0.4-1.5C10.7,61.1,10.6,60.5,10.6,60.4z"/>
			<path id="XMLID_696_" class="st3" d="M9.3,59c-0.1-0.6-0.5-1.9-1-1.9c0,0,0,0,0,0c1.4,1.4,0.8,3.6,0.9,4c0,0,0,0,0,0
				C9.3,60.6,9.3,60.1,9.3,59C9.3,59,9.3,59,9.3,59z"/>
			<path id="XMLID_693_" class="st3" d="M7.3,57.2c-0.2-0.6-0.8-1.8-1.2-1.9c0.3,0.3,0.4,0.5,0.6,0.9c0.1,0.2,0.7,1.3,1.1,3.2
				c0,0,0,0,0,0c0,0,0,0,0,0C7.9,59.4,7.5,57.4,7.3,57.2C7.3,57.2,7.4,57.2,7.3,57.2z"/>
			<path id="XMLID_690_" class="st3" d="M5.5,56c-0.2-0.3-1.3-1.2-1.3-1c0.2,0.2,0.7,0.4,1.3,1.3c0,0,0.3,1.1,0.5,1.3c0,0,0,0,0,0
				c0,0,0,0,0,0C6.1,57.5,5.6,56.1,5.5,56C5.5,55.9,5.5,56,5.5,56z"/>
			<path id="XMLID_687_" class="st3" d="M4.3,56.7c0.3,0.1,0.6,0.2,0.8,0.1c0,0,0.2,0.1,0.2,0c0,0,0,0,0,0c0,0,0,0,0,0c0,0,0,0,0,0
				c-0.4,0.5-1.8-0.6-1.8-0.6c0,0,0,0,0,0c0,0,0,0,0,0C3.6,56.3,4.2,56.6,4.3,56.7C4.3,56.7,4.3,56.7,4.3,56.7z"/>
			<path id="XMLID_684_" class="st3" d="M3.4,54.9C3.4,54.6,3.2,54.2,3,54c0-0.1,0,0,0-0.1c0,0,0.8,1.6,0.7,1.7c0,0,0-0.1,0-0.1
				C3.6,55.3,3.4,55,3.4,54.9z"/>
			<path id="XMLID_673_" class="st3" d="M0.9,52.7c2.3,3.3,5.2,4.2,7.5,7.6c1.7,2.2,3.8,5.2,6.6,6.9c0,0,0.1,0,0.1-0.1
				c0-0.1,0.1-0.1,0.1-0.2c-2.3-1.4-4-3.4-5.5-5.4c-0.5-0.7-1.4-1.5-1.7-2.3c-0.3-0.5-1.4-1.5-2.1-2.1c-0.1-0.1-0.9-0.8-0.9-0.8
				c0,0-0.7-0.7-0.8-0.7c-1.5-1-2.7-2.6-2.7-2.5C1.3,53.2,1,52.8,0.9,52.7z M1.5,53.4C1.7,53.5,1.4,53.3,1.5,53.4
				C1.5,53.4,1.5,53.4,1.5,53.4z"/>
		</g>
	</g>
	<g id="XMLID_269_">
		<g id="XMLID_650_">
			<path id="XMLID_665_" class="st0" d="M16.9,63.9c0,0,7.2,3,15.5-0.4c6.5-2.7,8.7-11.4,9.7-13.8c0.9-2.2,1.7-5.3,3.9-7.4
				c1.6-1.5-0.9-0.6-0.9-0.6s-4,1.6-6.3,2.4c-2.3,0.8-9.2,2-13.3,5.3C21.1,53,18.6,58,17,62.1C16.2,64.1,16.9,63.9,16.9,63.9z"/>
			<path id="XMLID_662_" class="st1" d="M17,63.6c0,0,0.3-1.2,1.3-2.8c1-1.6,1.7-3.6,1.7-3.6s1.5-2.3,2.4-3.2c1.1-1,1.3-0.7,0.9,0.6
				C23,56,23.8,56,23.8,55.9c0.8-2.2,2.6-4.7,3.3-5.2c1.2-1-0.9,3.5-0.6,3.4c0.2-0.1,1.6-3.1,2.2-4c0.5-0.7,2.2-3.2,2.4-1.8
				c0.1,0.4-0.6,2.7-0.8,3.2c-0.2,0.5-1.2,2.3-1,2.4c0.2,0.1,0.8-0.7,0.9-0.9c0.1-0.2,1.6-3.4,1.8-3.9c0.3-0.7,1.9-2.3,2.1-1.4
				c0.1,0.6-0.6,1.8-0.7,2.7c-0.1,0.8-0.2,1.8,0.1,1.5c0.6-0.5,0.8-2.8,0.9-3.2c0.6-1.1,1.4-1.8,2-2.3c0.8-0.5,2.5-1.4,3.3-1.8
				c1.4-0.7,5.7-2.5,5.9-2.3c0.2,0.2-2.3,2-3.1,2.9c-0.3,0.3-1,0.9-0.9,1.2c0.1,0.6,0.6,0,1.2,0.2c0.6,0.2-2.8,1.8-3.4,2.5
				c-0.4,0.4,0.9-0.1,1.8-0.2c1.2-0.2-2.1,2.5-2.8,3.2c-0.2,0.2-0.6,0.5-0.5,0.7c0.1,0.3,1.3,0.2,1.4,0.5c0.2,0.6-1.1,1.7-1.6,2.1
				c-0.5,0.4-2.5,1.1-2.5,1.1s-1.4,0.5-1.9,0.8c-0.3,0.2,1.1,0.2,1.5,0.3c0.4,0.1,1.9-0.3,2.1,0.1c0.2,0.4-1.9,1.3-2.3,1.4
				c-0.6,0.3-1.8,0.7-2.7,0.8c-0.7,0.1-3.6,0.4-3.9,0.6c-1.6,0.8,5.3-1,5.9,0.3c0.1,0.3-0.6,0.8-0.9,1.1c-1.3,1-4.3,2.4-5.9,2.6
				c-0.8,0.1-2.3-0.1-3.1,0c-0.4,0-1.2-0.1-1.6,0C21.1,64.6,17.4,63.7,17,63.6z"/>
			<path id="XMLID_651_" class="st2" d="M34.4,54.8c-0.2,0-0.4,0.1-0.6,0.1c-0.1,0-0.2,0.1-0.3,0.1c-0.1,0-0.2,0.1-0.4,0.1
				c-0.5,0.1-0.9,0.3-1.2,0.1c0,0,0,0,0-0.1c0,0,0-0.1-0.1-0.1c0,0,0,0,0,0l0.1,0c0.6,0.1,1.3-0.1,1.9-0.3c0.1,0,0.2-0.1,0.3-0.1
				c0,0,0.1,0,0.1,0c0.2-0.1,0.4-0.1,0.6-0.2c0.2-0.1,0.4-0.1,0.5-0.2c-0.1,0-0.2,0.1-0.2,0.1C34.9,54.6,34.7,54.7,34.4,54.8
				L34.4,54.8L34.4,54.8z"/>
		</g>
		<g id="XMLID_272_">
			<path id="XMLID_642_" class="st3" d="M20.2,59.1c0.3-0.8,2-3,2-2.9c0,0,0.1-0.1,0.1-0.1c-0.1,0-0.1,0,0-0.1
				c-0.6,0.1-2.9,2.9-3.5,6.3c0,0,0.1,0,0,0.1c0.1,0,0.1,0,0.1,0C18.9,62.4,20.1,59.4,20.2,59.1C20.2,59,20.2,59.1,20.2,59.1z"/>
			<path id="XMLID_638_" class="st3" d="M24.6,55.3c0.4-0.8,2.5-3.6,2.5-3.7c0,0,0-0.1,0-0.1c-0.1,0-0.1,0,0-0.1
				c-0.6,0.3-1.1,1.7-1.9,2.1c0.4,0.7-2.1,2.3-1.5,5.9c0.1,0,0.1,0,0.1,0.1c0-0.1,0.1-0.1,0.1,0C23.3,59.6,24.5,55.7,24.6,55.3
				C24.7,55.2,24.6,55.4,24.6,55.3z"/>
			<path id="XMLID_635_" class="st3" d="M28.3,53.6c0.2-0.7,1.7-3.7,1.8-3.6c0,0,0-0.1,0-0.1c-0.1,0-0.1,0,0,0
				c-0.1,0.1-1.4,1.7-1.3,2c-0.1,0.2-2.3,5.7-1.7,5.5c0,0,0,0,0,0c0.1,0,0.1,0,0.1,0c0,0,0,0,0,0C27.4,56.7,28.1,54.3,28.3,53.6
				C28.3,53.5,28.2,53.6,28.3,53.6z"/>
			<path id="XMLID_632_" class="st3" d="M31.7,52.1c0.2-0.7,1.2-2.5,1.3-2.4c0,0,0-0.1,0-0.1c-0.1,0-0.1,0,0,0
				c-0.4-0.1-2.4,4.1-2.4,5.8c0,0,0.1,0,0.1,0c0,0,0,0,0,0C30.9,54.7,31.3,52.6,31.7,52.1z"/>
			<path id="XMLID_629_" class="st3" d="M25.8,62.4c1.3-0.1,2.9-0.1,4.1-0.6c-0.1,0-0.1,0,0-0.1c-2.5-0.4-4.9,1.3-8.9-0.6
				c0,0-0.2-0.1-0.2-0.1c0,0.1,0,0.1-0.1,0.1c-0.4,0.2,2.6,1.3,3.4,1.2C24.2,62.3,25.7,62.4,25.8,62.4z"/>
			<path id="XMLID_361_" class="st3" d="M29.3,59.8c1.3-0.2,4.4-0.7,4.5-1.8c-0.1,0-0.1,0,0-0.1c-3.6,2.7-8.4,0.9-9.2,0.9
				c0,0.1,0,0.1,0,0.1C25.8,59.4,26.8,59.6,29.3,59.8C29.4,59.8,29.3,59.8,29.3,59.8z"/>
			<path id="XMLID_358_" class="st3" d="M33.8,55.8c1.3-0.4,4.3-1.3,4.6-2.3c-0.7,0.6-1.2,0.7-2.1,1.2c-0.4,0.2-3.1,1.1-7.5,1.7
				c0,0.1,0,0.1-0.1,0.1c0.1,0,0.1,0.1,0,0.1C28.8,56.6,33.3,56,33.8,55.8C33.9,55.8,33.7,55.8,33.8,55.8z"/>
			<path id="XMLID_355_" class="st3" d="M37.1,52c0.7-0.3,2.9-2.5,2.6-2.6c-0.4,0.4-1,1.5-3.2,2.6c0.1,0.1-2.5,0.5-3,0.7
				c0,0,0,0.1,0,0.1c0.1,0,0.1,0.1,0,0.1C33.6,53,36.8,52.2,37.1,52C37.2,52,37.1,52,37.1,52z"/>
			<path id="XMLID_352_" class="st3" d="M35.8,49.1c-0.4,0.7-0.7,1.4-0.5,1.8c0-0.1-0.3,0.3-0.1,0.3c0,0,0,0,0,0
				c0-0.1-0.1,0.1,0,0.1c0,0,0,0,0,0c-1-1.1,1.9-3.9,1.8-4c0,0.1,0,0.1,0,0.1c0,0,0,0,0,0C36.7,47.7,36,48.9,35.8,49.1
				C35.8,49.2,35.8,49.1,35.8,49.1z"/>
			<path id="XMLID_321_" class="st3" d="M39.9,47.6c0.8-0.1,1.8-0.4,2.2-0.7c0.1,0,0.1,0.1,0.3,0.1c-0.1,0-3.8,1.4-4,1.1
				c0,0,0.2-0.1,0.1-0.1C38.9,47.8,39.9,47.6,39.9,47.6z"/>
			<path id="XMLID_278_" class="st3" d="M45.6,42.4c-7.9,4.4-10.8,10.6-19,15c-5.3,3.3-12.7,7.3-17.2,13.1c0,0.1,0.1,0.2,0.1,0.2
				c0.1,0.1,0.2,0.2,0.5,0.2c3.6-4.9,8.5-8.2,13.4-11c1.6-0.9,3.8-2.8,5.5-3.4c1.2-0.6,3.7-2.9,5.2-4.1c0.1-0.1,2-1.9,2-1.9
				c-0.1,0.1,1.7-1.4,1.8-1.7c2.7-3.1,6.4-5.5,6.3-5.4C44.3,43.1,45.2,42.7,45.6,42.4z M43.9,43.6C43.5,44,44,43.5,43.9,43.6
				C43.9,43.6,43.9,43.6,43.9,43.6z"/>
		</g>
	</g>
</g>
</svg>
