<?xml version="1.0" encoding="utf-8"?>
<!-- Generator: Adobe Illustrator 19.2.1, SVG Export Plug-In . SVG Version: 6.00 Build 0)  -->
<svg version="1.1" id="Capa_1" xmlns="http://www.w3.org/2000/svg" xmlns:xlink="http://www.w3.org/1999/xlink" x="0px" y="0px"
	 viewBox="0 0 25 25" style="enable-background:new 0 0 25 25;" xml:space="preserve">
<style type="text/css">
	.st0{fill:#FFFFFF;stroke:#FFFFFF;stroke-width:0.25;stroke-miterlimit:10;}
	.st1{fill:#FFFFFF;stroke:#FFFFFF;stroke-miterlimit:10;}
</style>
<g id="XMLID_293_">
	<path id="XMLID_310_" class="st0" d="M18.5,7.1c0,0.2,0.2,0.4,0.4,0.4s0.4-0.2,0.4-0.4c0-0.2-0.2-0.4-0.4-0.4S18.5,6.8,18.5,7.1z"
		/>
	<path id="XMLID_309_" class="st0" d="M20.3,12.5c0,0.6-0.1,1.1-0.2,1.7c0,0.2,0.1,0.5,0.3,0.5c0,0,0.1,0,0.1,0
		c0.2,0,0.4-0.1,0.4-0.4c0.1-0.6,0.2-1.2,0.2-1.9c0-1.4-0.3-2.8-0.9-4c-0.1-0.2-0.4-0.3-0.6-0.2c-0.2,0.1-0.3,0.4-0.2,0.6
		C20,10,20.3,11.2,20.3,12.5z"/>
	<path id="XMLID_301_" class="st0" d="M14.8,16.5h-0.4v-5.8c0-0.2-0.2-0.4-0.4-0.4h-3.6c-0.2,0-0.4,0.2-0.4,0.4v1.8
		c0,0.2,0.2,0.4,0.4,0.4h0.4v3.6h-0.4c-0.2,0-0.4,0.2-0.4,0.4v1.8c0,0.2,0.2,0.4,0.4,0.4h4.5c0.2,0,0.4-0.2,0.4-0.4v-1.8
		C15.2,16.7,15,16.5,14.8,16.5z M14.3,18.3h-3.6v-0.9h0.4c0.2,0,0.4-0.2,0.4-0.4v-4.5c0-0.2-0.2-0.4-0.4-0.4h-0.4v-0.9h2.7v5.8
		c0,0.2,0.2,0.4,0.4,0.4h0.4V18.3z"/>
	<path id="XMLID_298_" class="st0" d="M12.5,9.3c1,0,1.8-0.8,1.8-1.8c0-1-0.8-1.8-1.8-1.8c-1,0-1.8,0.8-1.8,1.8
		C10.8,8.5,11.6,9.3,12.5,9.3z M12.5,6.6c0.5,0,0.9,0.4,0.9,0.9c0,0.5-0.4,0.9-0.9,0.9S11.7,8,11.7,7.5C11.7,7,12.1,6.6,12.5,6.6z"
		/>
	<path id="XMLID_294_" class="st1" d="M12.5,1C6.4,1,1.1,6.3,1.1,12.5c0,2.1,0.6,4.4,1.6,6.1l-1.6,4.8c-0.1,0.2,0,0.3,0.1,0.5
		c0.1,0.1,0.3,0.2,0.5,0.1l4.8-1.6c1.7,1,3.9,1.6,6.1,1.6c6.2,0,11.4-5.3,11.4-11.4C24,6.3,18.7,1,12.5,1z M12.5,23
		c-2,0-4.2-0.6-5.8-1.6c-0.1-0.1-0.3-0.1-0.4,0l-4.2,1.4l1.4-4.2c0-0.1,0-0.3,0-0.4c-1-1.6-1.6-3.7-1.6-5.8C2,6.7,6.8,1.9,12.5,1.9
		c5.7,0,10.5,4.8,10.5,10.5C23.1,18.2,18.3,23,12.5,23z"/>
</g>
</svg>
