<?xml version="1.0" encoding="utf-8"?>
<!-- Generator: Adobe Illustrator 19.2.1, SVG Export Plug-In . SVG Version: 6.00 Build 0)  -->
<svg version="1.1" id="Capa_1" xmlns="http://www.w3.org/2000/svg" xmlns:xlink="http://www.w3.org/1999/xlink" x="0px" y="0px"
	 viewBox="0 0 25 25" style="enable-background:new 0 0 25 25;" xml:space="preserve">
<style type="text/css">
	.st0{fill:#FFFFFF;}
</style>
<g>
	<g>
		<path class="st0" d="M7,19.9c1.9,0,3.5-1.3,3.5-2.8v-1.3l-6.3,3C4.8,19.4,5.8,19.9,7,19.9z"/>
		<path class="st0" d="M19.6,14.6c-0.5-0.2-1.1-0.4-1.7-0.4c-1.9,0-3.5,1.3-3.5,2.8s1.6,2.8,3.5,2.8c1.9,0,3.5-1.3,3.5-2.8v-6.7
			l-1.8,0.9L19.6,14.6L19.6,14.6z"/>
		<path class="st0" d="M23.7,6.6l-2.2,1.1V5.1H8.6v8.7l-0.9,0.4c-0.2,0-0.5-0.1-0.8-0.1c-1.6,0-3,0.9-3.4,2.1l-2.9,1.4l0.6,1.2
			l23-11.2L23.7,6.6z M10.5,7h9.2v1.4h-9.2V7z M10.5,9.3h7.7L10.5,13V9.3z"/>
	</g>
</g>
</svg>
