<?xml version="1.0" encoding="utf-8"?>
<!-- Generator: Adobe Illustrator 19.2.1, SVG Export Plug-In . SVG Version: 6.00 Build 0)  -->
<svg version="1.1" id="Capa_1" xmlns="http://www.w3.org/2000/svg" xmlns:xlink="http://www.w3.org/1999/xlink" x="0px" y="0px"
	 viewBox="0 0 25 25" style="enable-background:new 0 0 25 25;" xml:space="preserve">
<style type="text/css">
	.st0{fill:none;}
	.st1{fill:#FFFFFF;}
</style>
<rect x="10.5" y="7" class="st0" width="9.2" height="1.4"/>
<polygon class="st0" points="15.3,10.7 15.3,10.6 18.2,9.3 10.5,9.3 10.5,13 11.1,12.7 13.8,11.4 13.8,10.7 "/>
<path class="st1" d="M8.6,5.1v9.4l-0.9-0.2c-0.2,0-0.5-0.1-0.8-0.1c-1.4,0-2.7,0.7-3.2,1.7c-0.1,0.1-0.2,0.3-0.2,0.4
	c0,1.6,0.6,2.4,0.6,2.4c0.6,0.7,1.6,1.1,2.8,1.1c1.9,0,3.5-1.3,3.5-2.8v-1.3v-0.9V13V9.3h7.7h1.5V10v1.2h0v3.3
	c-0.5-0.2-1.1-0.4-1.7-0.4c-1.9,0-3.5,1.3-3.5,2.8s1.6,2.8,3.5,2.8c1.9,0,3.5-1.3,3.5-2.8v-5.9v-0.7V9.1V8.5V7.6V5.1H8.6z M19.6,8.3
	h-9.2V7h9.2V8.3z"/>
</svg>
