<?xml version="1.0" encoding="utf-8"?>
<!-- Generator: Adobe Illustrator 19.2.1, SVG Export Plug-In . SVG Version: 6.00 Build 0)  -->
<svg version="1.1" id="Capa_1" xmlns="http://www.w3.org/2000/svg" xmlns:xlink="http://www.w3.org/1999/xlink" x="0px" y="0px"
	 viewBox="0 0 25 25" style="enable-background:new 0 0 25 25;" xml:space="preserve">
<style type="text/css">
	.st0{fill:#FFFFFF;}
</style>
<g id="XMLID_193_">
	<g id="XMLID_199_">
		<path id="XMLID_201_" class="st0" d="M2.5,14.3c0,2.7,1,5.2,2.9,7.1c1.9,1.9,4.4,2.9,7.1,2.9c2.7,0,5.2-1,7.1-2.9
			c1.9-1.9,2.9-4.4,2.9-7.1v-0.9l-1.8,0v0.9c0,4.5-3.6,8.1-8.1,8.1s-8.1-3.6-8.1-8.1c0-4.5,3.6-8.1,8.1-8.1H14l-2.3,2.4L13,9.9
			l4.5-4.6l-4.6-4.6L11.6,2L14,4.4h-1.5c-2.7,0-5.2,1-7.1,2.9C3.6,9.2,2.5,11.7,2.5,14.3z"/>
	</g>
</g>
</svg>
