<?xml version="1.0" encoding="utf-8"?>
<!-- Generator: Adobe Illustrator 19.2.1, SVG Export Plug-In . SVG Version: 6.00 Build 0)  -->
<svg version="1.1" id="Capa_1" xmlns="http://www.w3.org/2000/svg" xmlns:xlink="http://www.w3.org/1999/xlink" x="0px" y="0px"
	 viewBox="0 0 28.6 28.6" style="enable-background:new 0 0 28.6 28.6;" xml:space="preserve">
<style type="text/css">
	.st0{fill:#E2E2E2;}
</style>
<path id="XMLID_409_" class="st0" d="M14.3,0.1C6.5,0.1,0.1,6.5,0.1,14.3s6.3,14.2,14.2,14.2s14.2-6.3,14.2-14.2S22.1,0.1,14.3,0.1z
	 M21.8,13.9l-2.6,2.2l0.8,3.3c0.4,1.6-1.4,2.9-2.8,2l-2.9-1.8l-2.9,1.8c-1.4,0.9-3.1-0.4-2.8-2l0.8-3.3l-2.6-2.2
	c-1.3-1.1-0.6-3.1,1.1-3.3l3.4-0.3l1.3-3.2c0.6-1.5,2.8-1.5,3.4,0l1.3,3.2l3.4,0.3C22.4,10.8,23.1,12.8,21.8,13.9z"/>
</svg>
